<?xml version="1.0" encoding="UTF-8"?>
<svg version="1.1" xmlns="http://www.w3.org/2000/svg" width="297" height="190">
<path d="M0 0 C0.86615506 -0.00445784 1.73231011 -0.00891569 2.62471229 -0.01350862 C3.57683622 -0.01332426 4.52896016 -0.01313989 5.50993633 -0.01294994 C7.02651263 -0.01846498 7.02651263 -0.01846498 8.57372683 -0.02409142 C11.97765456 -0.03514624 15.38155179 -0.03897513 18.7854948 -0.04278088 C21.21952188 -0.04904408 23.65354799 -0.05569075 26.08757305 -0.0626936 C33.40268833 -0.08193224 40.71780109 -0.09252271 48.03293398 -0.10142139 C51.47750583 -0.10580481 54.92207614 -0.11117143 58.36664677 -0.11641026 C69.8162892 -0.13342078 81.26593067 -0.1479156 92.7155838 -0.155159 C95.68647863 -0.15706889 98.65737345 -0.15898923 101.62826824 -0.16094494 C102.36667034 -0.16142868 103.10507243 -0.16191242 103.86585035 -0.16241082 C115.83119455 -0.17071362 127.79643885 -0.19605549 139.76173941 -0.22852562 C152.04510017 -0.26158729 164.32841014 -0.27960689 176.61181563 -0.28280324 C183.50901847 -0.28496902 190.40607557 -0.29372758 197.30323505 -0.31926441 C203.78993598 -0.3432261 210.27644566 -0.3468027 216.76318455 -0.33650303 C219.14564797 -0.33600611 221.52812405 -0.34237227 223.91054821 -0.35605907 C227.16005946 -0.37368468 230.40861869 -0.3667172 233.65812969 -0.35352612 C234.60356146 -0.36449536 235.54899323 -0.37546461 236.52307445 -0.38676625 C242.1108656 -0.33190421 245.36439066 0.36567069 249.77450848 4.13422108 C254.99640283 10.51307614 254.33563613 17.40262531 254.27621746 25.32782459 C254.28000456 26.76738481 254.28550781 28.20694137 254.29259014 29.64648914 C254.30651009 33.54113746 254.2954002 37.4353423 254.27887893 41.32996583 C254.26499195 45.4124208 254.27149255 49.49485097 254.27501202 53.57732105 C254.27771096 60.43091417 254.26426477 67.28433183 254.24106121 74.13788319 C254.21444279 82.05473265 254.21270889 89.97128903 254.22444957 97.88816792 C254.23523817 105.5144074 254.2290325 113.14054117 254.21489429 120.76677227 C254.20914493 124.00787266 254.20920887 127.24889541 254.21395969 130.48999691 C254.21874106 134.30766368 254.20858016 138.12501052 254.18700504 141.94261646 C254.18145313 143.34140348 254.18095722 144.74022134 254.18595791 146.13901043 C254.19193916 148.0523838 254.17753311 149.96578819 254.16218853 151.87910938 C254.15854369 153.48321847 254.15854369 153.48321847 254.15482521 155.11973381 C253.55799254 159.85038154 251.84498655 163.12008396 248.39950848 166.38422108 C242.60340821 170.24828792 237.81794075 170.4227208 231.03308392 170.39491749 C229.55175466 170.40065581 229.55175466 170.40065581 228.04049957 170.40651006 C224.72798631 170.41683724 221.41564648 170.41284839 218.10312176 170.40887928 C215.7295341 170.41322592 213.35594786 170.4184089 210.9823637 170.42436695 C205.20211123 170.43638083 199.42191283 170.43890765 193.64164938 170.43656669 C188.94264308 170.43478323 184.24365088 170.43653376 179.54464626 170.44079113 C178.5412379 170.44168391 178.5412379 170.44168391 177.51755866 170.44259473 C176.15857244 170.44380649 174.79958623 170.44502063 173.44060002 170.44623711 C160.69682265 170.45711272 147.95307174 170.45495015 135.20929287 170.44885226 C123.55515912 170.44368391 111.90110898 170.45493633 100.24699177 170.47395048 C88.2765704 170.49333075 76.30618858 170.5015845 64.33575141 170.49782723 C57.61687492 170.49591536 50.89806958 170.49840125 44.17920589 170.51254177 C37.86072878 170.52510199 31.54241916 170.52319296 25.22394466 170.51013088 C22.90479762 170.50776159 20.58563885 170.51051235 18.26650524 170.51875401 C15.10077515 170.52919309 11.93561 170.52114315 8.76990032 170.50844288 C7.85209132 170.51581716 6.93428232 170.52319145 5.98866093 170.5307892 C-0.96334263 170.4721129 -5.71395895 169.31816245 -11.10049152 164.63422108 C-14.23072977 160.95158785 -14.35480512 158.1994821 -14.39043903 153.52580738 C-14.40167301 152.35815342 -14.41290699 151.19049946 -14.42448139 149.98746204 C-14.4318079 148.70485493 -14.43913441 147.42224781 -14.44668293 146.10077381 C-14.45790029 144.73726029 -14.46953261 143.37375013 -14.48154926 142.01024342 C-14.51289262 138.3032809 -14.53801295 134.59630012 -14.56174612 130.88928199 C-14.58217736 127.79085326 -14.60571661 124.69245144 -14.62928331 121.59404522 C-14.68492345 114.27697877 -14.73563267 106.95988967 -14.78310871 99.642766 C-14.83205138 92.11010607 -14.88836974 84.57752799 -14.94852984 77.04494995 C-15.00003473 70.56922865 -15.04733225 64.09348617 -15.0912174 57.61770874 C-15.11741471 53.7542025 -15.14506711 49.89072184 -15.17659092 46.02725506 C-15.20607355 42.38706389 -15.23024664 38.74687373 -15.25049114 35.10661983 C-15.26262952 33.14761469 -15.27999138 31.18864404 -15.29755878 29.22968006 C-15.39211001 9.16124693 -15.39211001 9.16124693 -10.85049152 4.57172108 C-10.24463215 3.93105701 -9.63877277 3.29039295 -9.01455402 2.63031483 C-6.15430782 0.23844955 -3.5851868 0.00856153 0 0 Z " fill="#0C2961" transform="translate(28.225491523742676,0.865778923034668)"/>
<path d="M0 0 C1.09563483 0.00054477 2.19126966 0.00108953 3.32010555 0.00165081 C5.20262524 -0.00464092 5.20262524 -0.00464092 7.12317562 -0.01105976 C8.52165967 -0.00557589 9.92014294 0.0001071 11.31862545 0.00596905 C12.78526043 0.00489661 14.25189499 0.00295849 15.71852779 0.00021648 C19.70806034 -0.00464069 23.69748144 0.00303432 27.68700051 0.01316953 C31.85456709 0.02193444 36.02213002 0.0201929 40.18970394 0.01980877 C47.18826323 0.02074603 54.18677922 0.02943886 61.18532467 0.04307842 C69.28784066 0.05881073 77.39030923 0.06407635 85.4928394 0.06334287 C93.27442973 0.06273347 101.05600454 0.06783049 108.83759022 0.07613468 C112.15536717 0.07967398 115.47313864 0.08149885 118.7909174 0.08202839 C122.69375386 0.08302967 126.5965502 0.08910858 130.49937344 0.09919453 C131.93574115 0.10212624 133.37211349 0.10334355 134.80848408 0.10276699 C136.76109269 0.10227963 138.71369961 0.10852563 140.66629696 0.1151762 C141.76155477 0.11685205 142.85681257 0.11852789 143.98526001 0.12025452 C146.42970943 0.24888897 146.42970943 0.24888897 147.42970943 1.24888897 C147.52985853 2.77510039 147.56046463 4.30593067 147.5634222 5.83542156 C147.56981968 7.32245335 147.56981968 7.32245335 147.5763464 8.83952618 C147.57589321 9.93617596 147.57544003 11.03282574 147.57497311 12.16270733 C147.57833172 13.3105621 147.58169033 14.45841686 147.58515072 15.64105511 C147.5946939 19.45695848 147.59660549 23.27281814 147.59767818 27.08873272 C147.60088834 29.7281016 147.60425223 32.3674703 147.60776424 35.0068388 C147.61416689 40.54773018 147.61564594 46.08860962 147.61501217 51.6295042 C147.61441121 58.04095664 147.62496486 64.45232498 147.64075583 70.86375612 C147.65538659 77.02271081 147.65900081 83.18162503 147.65840244 89.3405962 C147.65958672 91.96535937 147.66403336 94.59012308 147.67173481 97.21487522 C147.68147796 100.87854749 147.67867918 104.54200066 147.67262936 108.20567608 C147.67824886 109.30030163 147.68386837 110.39492718 147.68965816 111.5227232 C147.68546368 112.51689754 147.68126919 113.51107189 147.67694759 114.53537273 C147.67749236 115.40240291 147.67803713 116.26943308 147.6785984 117.16273689 C147.42970943 119.24888897 147.42970943 119.24888897 145.42970943 121.24888897 C142.89624023 121.50057125 142.89624023 121.50057125 139.6286993 121.50285625 C138.39340481 121.5084959 137.15811031 121.51413555 135.88538265 121.5199461 C134.508963 121.51605712 133.13254393 121.51196076 131.75612545 121.50767803 C130.31243876 121.51038689 128.86875344 121.51394723 127.42507076 121.51829815 C123.49739279 121.52743782 119.56981955 121.52387123 115.64213967 121.51753998 C111.53689774 121.51248715 107.43166496 121.51716952 103.32642269 121.52031231 C96.43041526 121.52395447 89.53445061 121.51914676 82.63844967 121.50963116 C74.66091783 121.49875043 66.68348825 121.50226839 58.7059589 121.51328397 C51.86345657 121.5223549 45.02098506 121.52364295 38.17847866 121.51840663 C34.0888253 121.5152853 29.99922003 121.51488195 25.90956974 121.52147961 C22.06415037 121.52724947 18.218863 121.52326281 14.37345791 121.51169109 C12.96050581 121.50904239 11.54754264 121.50981318 10.13459492 121.51421642 C8.20896833 121.51966484 6.28331753 121.51162749 4.35770321 121.50285625 C2.73970491 121.50172518 2.73970491 121.50172518 1.08901978 121.50057125 C-1.57029057 121.24888897 -1.57029057 121.24888897 -4.57029057 119.24888897 C-4.94502068 117.18114758 -4.94502068 117.18114758 -4.94451237 114.58006573 C-4.95503384 113.10359318 -4.95503384 113.10359318 -4.96576786 111.5972929 C-4.95812412 110.51358913 -4.95048038 109.42988537 -4.94260502 108.31334209 C-4.94625568 107.17509487 -4.94990635 106.03684765 -4.95366764 104.86410809 C-4.96180118 101.08596856 -4.94813938 97.30825416 -4.93357182 93.53013897 C-4.93305355 90.91461977 -4.93356995 88.29910017 -4.93508244 85.68358135 C-4.93596593 80.19569563 -4.92487356 74.70793332 -4.90647221 69.22008038 C-4.88530365 62.87050737 -4.88179434 56.52111518 -4.88803416 50.17151403 C-4.89372409 44.06966907 -4.88798268 37.96789817 -4.87686062 31.86606121 C-4.87300039 29.26642393 -4.87186379 26.66678119 -4.87344646 24.06714153 C-4.87381566 20.4394661 -4.86123749 16.81206955 -4.84494877 13.18443584 C-4.84742619 12.10073208 -4.8499036 11.01702831 -4.85245609 9.90048504 C-4.84537128 8.91617001 -4.83828648 7.93185497 -4.83098698 6.91771221 C-4.82893411 6.0593552 -4.82688124 5.20099819 -4.82476616 4.31663036 C-4.41815638 1.01272268 -3.21620246 0.31143456 0 0 Z " fill="#102A62" transform="translate(48.57029056549072,16.751111030578613)"/>
<path d="M0 0 C0.86615506 -0.00445784 1.73231011 -0.00891569 2.62471229 -0.01350862 C3.57683622 -0.01332426 4.52896016 -0.01313989 5.50993633 -0.01294994 C7.02651263 -0.01846498 7.02651263 -0.01846498 8.57372683 -0.02409142 C11.97765456 -0.03514624 15.38155179 -0.03897513 18.7854948 -0.04278088 C21.21952188 -0.04904408 23.65354799 -0.05569075 26.08757305 -0.0626936 C33.40268833 -0.08193224 40.71780109 -0.09252271 48.03293398 -0.10142139 C51.47750583 -0.10580481 54.92207614 -0.11117143 58.36664677 -0.11641026 C69.8162892 -0.13342078 81.26593067 -0.1479156 92.7155838 -0.155159 C95.68647863 -0.15706889 98.65737345 -0.15898923 101.62826824 -0.16094494 C102.36667034 -0.16142868 103.10507243 -0.16191242 103.86585035 -0.16241082 C115.83119455 -0.17071362 127.79643885 -0.19605549 139.76173941 -0.22852562 C152.04510017 -0.26158729 164.32841014 -0.27960689 176.61181563 -0.28280324 C183.50901847 -0.28496902 190.40607557 -0.29372758 197.30323505 -0.31926441 C203.78993598 -0.3432261 210.27644566 -0.3468027 216.76318455 -0.33650303 C219.14564797 -0.33600611 221.52812405 -0.34237227 223.91054821 -0.35605907 C227.16005946 -0.37368468 230.40861869 -0.3667172 233.65812969 -0.35352612 C234.60356146 -0.36449536 235.54899323 -0.37546461 236.52307445 -0.38676625 C242.1108656 -0.33190421 245.36439066 0.36567069 249.77450848 4.13422108 C254.99640283 10.51307614 254.33563613 17.40262531 254.27621746 25.32782459 C254.28000456 26.76738481 254.28550781 28.20694137 254.29259014 29.64648914 C254.30651009 33.54113746 254.2954002 37.4353423 254.27887893 41.32996583 C254.26499195 45.4124208 254.27149255 49.49485097 254.27501202 53.57732105 C254.27771096 60.43091417 254.26426477 67.28433183 254.24106121 74.13788319 C254.21444279 82.05473265 254.21270889 89.97128903 254.22444957 97.88816792 C254.23523817 105.5144074 254.2290325 113.14054117 254.21489429 120.76677227 C254.20914493 124.00787266 254.20920887 127.24889541 254.21395969 130.48999691 C254.21874106 134.30766368 254.20858016 138.12501052 254.18700504 141.94261646 C254.18145313 143.34140348 254.18095722 144.74022134 254.18595791 146.13901043 C254.19193916 148.0523838 254.17753311 149.96578819 254.16218853 151.87910938 C254.15854369 153.48321847 254.15854369 153.48321847 254.15482521 155.11973381 C253.55799254 159.85038154 251.84498655 163.12008396 248.39950848 166.38422108 C242.60340821 170.24828792 237.81794075 170.4227208 231.03308392 170.39491749 C229.55175466 170.40065581 229.55175466 170.40065581 228.04049957 170.40651006 C224.72798631 170.41683724 221.41564648 170.41284839 218.10312176 170.40887928 C215.7295341 170.41322592 213.35594786 170.4184089 210.9823637 170.42436695 C205.20211123 170.43638083 199.42191283 170.43890765 193.64164938 170.43656669 C188.94264308 170.43478323 184.24365088 170.43653376 179.54464626 170.44079113 C178.5412379 170.44168391 178.5412379 170.44168391 177.51755866 170.44259473 C176.15857244 170.44380649 174.79958623 170.44502063 173.44060002 170.44623711 C160.69682265 170.45711272 147.95307174 170.45495015 135.20929287 170.44885226 C123.55515912 170.44368391 111.90110898 170.45493633 100.24699177 170.47395048 C88.2765704 170.49333075 76.30618858 170.5015845 64.33575141 170.49782723 C57.61687492 170.49591536 50.89806958 170.49840125 44.17920589 170.51254177 C37.86072878 170.52510199 31.54241916 170.52319296 25.22394466 170.51013088 C22.90479762 170.50776159 20.58563885 170.51051235 18.26650524 170.51875401 C15.10077515 170.52919309 11.93561 170.52114315 8.76990032 170.50844288 C7.85209132 170.51581716 6.93428232 170.52319145 5.98866093 170.5307892 C-0.96334263 170.4721129 -5.71395895 169.31816245 -11.10049152 164.63422108 C-14.23072977 160.95158785 -14.35480512 158.1994821 -14.39043903 153.52580738 C-14.40167301 152.35815342 -14.41290699 151.19049946 -14.42448139 149.98746204 C-14.4318079 148.70485493 -14.43913441 147.42224781 -14.44668293 146.10077381 C-14.45790029 144.73726029 -14.46953261 143.37375013 -14.48154926 142.01024342 C-14.51289262 138.3032809 -14.53801295 134.59630012 -14.56174612 130.88928199 C-14.58217736 127.79085326 -14.60571661 124.69245144 -14.62928331 121.59404522 C-14.68492345 114.27697877 -14.73563267 106.95988967 -14.78310871 99.642766 C-14.83205138 92.11010607 -14.88836974 84.57752799 -14.94852984 77.04494995 C-15.00003473 70.56922865 -15.04733225 64.09348617 -15.0912174 57.61770874 C-15.11741471 53.7542025 -15.14506711 49.89072184 -15.17659092 46.02725506 C-15.20607355 42.38706389 -15.23024664 38.74687373 -15.25049114 35.10661983 C-15.26262952 33.14761469 -15.27999138 31.18864404 -15.29755878 29.22968006 C-15.39211001 9.16124693 -15.39211001 9.16124693 -10.85049152 4.57172108 C-10.24463215 3.93105701 -9.63877277 3.29039295 -9.01455402 2.63031483 C-6.15430782 0.23844955 -3.5851868 0.00856153 0 0 Z M-6.22549152 13.13422108 C-6.9705875 15.91568799 -6.9705875 15.91568799 -6.85368061 19.05511951 C-6.86633457 20.26647572 -6.87898853 21.47783192 -6.89202595 22.72589588 C-6.88071004 24.06513355 -6.86888258 25.40436697 -6.85659504 26.74359608 C-6.86173406 28.15640632 -6.86901522 29.56921017 -6.87827778 30.9819994 C-6.8968028 34.81686073 -6.88384694 38.6510274 -6.86418748 42.48585987 C-6.8478084 46.49853806 -6.85661283 50.51117199 -6.86170673 54.52386951 C-6.86622855 61.26258924 -6.85035264 68.00103146 -6.82241535 74.73968983 C-6.79036286 82.53104736 -6.79037877 90.32190439 -6.80763012 98.11329746 C-6.82349277 105.60768123 -6.8167634 113.10188147 -6.79969311 120.59625721 C-6.79281965 123.78600416 -6.79385802 126.97560412 -6.80123806 130.16534901 C-6.80889817 133.92150697 -6.79678463 137.67709522 -6.76938915 141.43315601 C-6.76250121 142.81181109 -6.76241182 144.19051934 -6.76960468 145.56917286 C-6.77828956 147.45056168 -6.75991703 149.33201756 -6.74015522 151.21332264 C-6.7373483 152.26634571 -6.73454138 153.31936878 -6.7316494 154.40430164 C-6.38320575 157.18817684 -6.38320575 157.18817684 -4.79870319 159.47337246 C-0.8428674 162.02661924 2.84547228 161.67964807 7.46055889 161.6286974 C8.95096523 161.63594064 8.95096523 161.63594064 10.47148079 161.64333022 C13.81046672 161.65462778 17.14869135 161.6372614 20.48764324 161.62006092 C22.87742604 161.6222061 25.26720782 161.62608278 27.65698528 161.63156605 C33.47955764 161.64026694 39.30188281 161.63036736 45.12442774 161.61186545 C51.90236647 161.59110135 58.68025603 161.59123771 65.45822059 161.59221061 C77.5496191 161.59321193 89.64091182 161.57488602 101.73227215 161.54584217 C113.470573 161.5176609 125.20878075 161.50350089 136.9471159 161.50482655 C137.67020872 161.50490646 138.39330154 161.50498637 139.13830627 161.5050687 C139.86013782 161.50514941 140.58196936 161.50523012 141.32567459 161.50531328 C154.68244677 161.50669232 168.03917931 161.49491733 181.39593865 161.47700685 C186.12295042 161.47096972 190.84995491 161.46884721 195.5769701 161.46794224 C201.93562639 161.46593787 208.29418433 161.45376511 214.65280819 161.43360996 C216.99136599 161.42775257 219.3299351 161.42531072 221.66849995 161.42646503 C224.85091952 161.42744171 228.03306078 161.41618198 231.2154417 161.40164661 C232.14947514 161.40474382 233.08350857 161.40784102 234.04584605 161.41103208 C234.89581752 161.40458319 235.745789 161.3981343 236.62151718 161.39148998 C237.35638605 161.39008113 238.09125492 161.38867228 238.84839255 161.38722074 C241.10091722 161.23555951 241.10091722 161.23555951 243.77450848 159.13422108 C244.83254313 155.96011711 244.90547214 153.70625061 244.91495037 150.37154102 C244.92066051 149.16997364 244.92637066 147.96840626 244.93225384 146.73042774 C244.93349916 145.39700805 244.93462426 144.06358823 244.93564129 142.73016834 C244.94027003 141.3273655 244.94529477 139.92456392 244.95068645 138.5217638 C244.96380496 134.70981145 244.97025405 130.89787671 244.97469711 127.08590531 C244.97762804 124.70503995 244.98173284 122.3241794 244.98620129 119.94331646 C244.99987326 112.49597971 245.00954202 105.04865397 245.01340318 97.60130554 C245.01788674 89.00057941 245.03544964 80.40001198 245.06440377 71.79933411 C245.08600334 65.15297829 245.09610649 58.50666719 245.0974443 51.86027664 C245.09849334 47.88960987 245.10442248 43.91909235 245.12226391 39.94846249 C245.13871543 36.21462147 245.14091448 32.48104237 245.1321249 28.74717808 C245.13098473 26.72261373 245.14472366 24.69805817 245.15887737 22.67354298 C245.15330822 21.46915577 245.14773907 20.26476856 245.14200115 19.02388477 C245.14346771 17.97693723 245.14493427 16.92998968 245.14644527 15.85131645 C244.68977575 12.51522643 244.42785107 11.26252368 241.77450848 9.13422108 C238.59576742 8.52919366 235.4492812 8.59543516 232.22217083 8.62628651 C231.23083216 8.62004654 230.23949349 8.61380658 229.21811426 8.60737753 C225.88071669 8.59136317 222.54404097 8.60408512 219.20663738 8.61664295 C216.82024489 8.61122553 214.43385573 8.60410502 212.04747295 8.59540272 C206.22878827 8.5790203 200.41033476 8.58146874 194.59164287 8.59305328 C189.86252524 8.60207938 185.13346546 8.60331518 180.4043417 8.59895802 C179.731779 8.59834508 179.0592163 8.59773215 178.36627292 8.59710065 C177.00003516 8.59582176 175.63379742 8.59452491 174.26755969 8.59321028 C161.44798974 8.58179678 148.6285341 8.59492929 135.80898289 8.61641175 C124.80850182 8.63427533 113.80818961 8.63118629 102.8077116 8.6127367 C90.03776212 8.59132949 77.26791297 8.58290407 64.49794805 8.59518576 C63.13606764 8.59645996 61.77418722 8.59771745 60.41230679 8.59895802 C59.40717138 8.59988367 59.40717138 8.59988367 58.38173021 8.60082802 C53.65915306 8.60428199 48.93663952 8.59845142 44.21407223 8.5890398 C37.85616935 8.57749957 31.49858582 8.58547409 25.14071751 8.60861683 C22.80461247 8.61391408 20.46848065 8.61237289 18.13238621 8.60356617 C14.94816359 8.5926674 11.7649701 8.60630677 8.58081341 8.62628651 C7.65192354 8.61736362 6.72303367 8.60844073 5.76599562 8.59924746 C0.61288994 8.66214689 -2.74299966 8.90701869 -6.22549152 13.13422108 Z " fill="#030407" transform="translate(28.225491523742676,0.865778923034668)"/>
<path d="M0 0 C1.09563483 0.00054477 2.19126966 0.00108953 3.32010555 0.00165081 C5.20262524 -0.00464092 5.20262524 -0.00464092 7.12317562 -0.01105976 C8.52165967 -0.00557589 9.92014294 0.0001071 11.31862545 0.00596905 C12.78526043 0.00489661 14.25189499 0.00295849 15.71852779 0.00021648 C19.70806034 -0.00464069 23.69748144 0.00303432 27.68700051 0.01316953 C31.85456709 0.02193444 36.02213002 0.0201929 40.18970394 0.01980877 C47.18826323 0.02074603 54.18677922 0.02943886 61.18532467 0.04307842 C69.28784066 0.05881073 77.39030923 0.06407635 85.4928394 0.06334287 C93.27442973 0.06273347 101.05600454 0.06783049 108.83759022 0.07613468 C112.15536717 0.07967398 115.47313864 0.08149885 118.7909174 0.08202839 C122.69375386 0.08302967 126.5965502 0.08910858 130.49937344 0.09919453 C131.93574115 0.10212624 133.37211349 0.10334355 134.80848408 0.10276699 C136.76109269 0.10227963 138.71369961 0.10852563 140.66629696 0.1151762 C141.76155477 0.11685205 142.85681257 0.11852789 143.98526001 0.12025452 C146.42970943 0.24888897 146.42970943 0.24888897 147.42970943 1.24888897 C147.52985853 2.77510039 147.56046463 4.30593067 147.5634222 5.83542156 C147.56981968 7.32245335 147.56981968 7.32245335 147.5763464 8.83952618 C147.57589321 9.93617596 147.57544003 11.03282574 147.57497311 12.16270733 C147.57833172 13.3105621 147.58169033 14.45841686 147.58515072 15.64105511 C147.5946939 19.45695848 147.59660549 23.27281814 147.59767818 27.08873272 C147.60088834 29.7281016 147.60425223 32.3674703 147.60776424 35.0068388 C147.61416689 40.54773018 147.61564594 46.08860962 147.61501217 51.6295042 C147.61441121 58.04095664 147.62496486 64.45232498 147.64075583 70.86375612 C147.65538659 77.02271081 147.65900081 83.18162503 147.65840244 89.3405962 C147.65958672 91.96535937 147.66403336 94.59012308 147.67173481 97.21487522 C147.68147796 100.87854749 147.67867918 104.54200066 147.67262936 108.20567608 C147.67824886 109.30030163 147.68386837 110.39492718 147.68965816 111.5227232 C147.68546368 112.51689754 147.68126919 113.51107189 147.67694759 114.53537273 C147.67749236 115.40240291 147.67803713 116.26943308 147.6785984 117.16273689 C147.42970943 119.24888897 147.42970943 119.24888897 145.42970943 121.24888897 C142.89624023 121.50057125 142.89624023 121.50057125 139.6286993 121.50285625 C138.39340481 121.5084959 137.15811031 121.51413555 135.88538265 121.5199461 C134.508963 121.51605712 133.13254393 121.51196076 131.75612545 121.50767803 C130.31243876 121.51038689 128.86875344 121.51394723 127.42507076 121.51829815 C123.49739279 121.52743782 119.56981955 121.52387123 115.64213967 121.51753998 C111.53689774 121.51248715 107.43166496 121.51716952 103.32642269 121.52031231 C96.43041526 121.52395447 89.53445061 121.51914676 82.63844967 121.50963116 C74.66091783 121.49875043 66.68348825 121.50226839 58.7059589 121.51328397 C51.86345657 121.5223549 45.02098506 121.52364295 38.17847866 121.51840663 C34.0888253 121.5152853 29.99922003 121.51488195 25.90956974 121.52147961 C22.06415037 121.52724947 18.218863 121.52326281 14.37345791 121.51169109 C12.96050581 121.50904239 11.54754264 121.50981318 10.13459492 121.51421642 C8.20896833 121.51966484 6.28331753 121.51162749 4.35770321 121.50285625 C2.73970491 121.50172518 2.73970491 121.50172518 1.08901978 121.50057125 C-1.57029057 121.24888897 -1.57029057 121.24888897 -4.57029057 119.24888897 C-4.94502068 117.18114758 -4.94502068 117.18114758 -4.94451237 114.58006573 C-4.95503384 113.10359318 -4.95503384 113.10359318 -4.96576786 111.5972929 C-4.95812412 110.51358913 -4.95048038 109.42988537 -4.94260502 108.31334209 C-4.94625568 107.17509487 -4.94990635 106.03684765 -4.95366764 104.86410809 C-4.96180118 101.08596856 -4.94813938 97.30825416 -4.93357182 93.53013897 C-4.93305355 90.91461977 -4.93356995 88.29910017 -4.93508244 85.68358135 C-4.93596593 80.19569563 -4.92487356 74.70793332 -4.90647221 69.22008038 C-4.88530365 62.87050737 -4.88179434 56.52111518 -4.88803416 50.17151403 C-4.89372409 44.06966907 -4.88798268 37.96789817 -4.87686062 31.86606121 C-4.87300039 29.26642393 -4.87186379 26.66678119 -4.87344646 24.06714153 C-4.87381566 20.4394661 -4.86123749 16.81206955 -4.84494877 13.18443584 C-4.84742619 12.10073208 -4.8499036 11.01702831 -4.85245609 9.90048504 C-4.84537128 8.91617001 -4.83828648 7.93185497 -4.83098698 6.91771221 C-4.82893411 6.0593552 -4.82688124 5.20099819 -4.82476616 4.31663036 C-4.41815638 1.01272268 -3.21620246 0.31143456 0 0 Z M3.42970943 30.24888897 C3.42970943 57.96888897 3.42970943 85.68888897 3.42970943 114.24888897 C48.30970943 114.24888897 93.18970943 114.24888897 139.42970943 114.24888897 C139.42970943 86.52888897 139.42970943 58.80888897 139.42970943 30.24888897 C94.54970943 30.24888897 49.66970943 30.24888897 3.42970943 30.24888897 Z " fill="#000105" transform="translate(48.57029056549072,16.751111030578613)"/>
<path d="M0 0 C97.68 0 195.36 0 296 0 C294.63375364 10.92997086 294.63375364 10.92997086 289.05642605 15.64205647 C284.38726926 17.71652225 279.90224153 17.43014463 274.84718323 17.41459656 C273.13815847 17.42690826 273.13815847 17.42690826 271.39460796 17.43946868 C267.56841675 17.46318403 263.74251949 17.46536962 259.91625977 17.4675293 C257.17650846 17.47815822 254.43678441 17.49315903 251.697052 17.50779724 C244.24884136 17.5442024 236.80068972 17.55817129 229.35240293 17.56763434 C224.70174696 17.57365616 220.05110965 17.58441661 215.40046501 17.59613991 C202.52330719 17.62789112 189.64616595 17.65459941 176.76896763 17.66089153 C175.53329978 17.66150224 175.53329978 17.66150224 174.27266895 17.66212528 C172.60269861 17.66293297 170.93272826 17.66373869 169.2627579 17.66454246 C168.01930529 17.66515083 168.01930529 17.66515083 166.75073242 17.66577148 C165.5057622 17.66637445 165.5057622 17.66637445 164.23564105 17.6669896 C150.77975599 17.67448318 137.32427083 17.71897968 123.8685304 17.7796289 C110.05279203 17.84140091 96.23725308 17.87325033 82.42137378 17.87471896 C74.6644468 17.87622085 66.90801321 17.89049049 59.15121651 17.93753624 C52.54797745 17.97741844 45.94540133 17.98987685 39.34207053 17.96655061 C35.97248468 17.95546081 32.60529253 17.96164957 29.23568153 17.99401855 C25.58256647 18.02700791 21.93287582 18.0108872 18.27980042 17.98222351 C16.68277002 18.01410807 16.68277002 18.01410807 15.05347639 18.04663676 C8.20049952 17.92240734 8.20049952 17.92240734 5.00850284 15.46982729 C0.60096684 10.21408021 0.83905547 7.55149925 0 0 Z " fill="#020202" transform="translate(0,173)"/>
<path d="M0 0 C44.88 0 89.76 0 136 0 C136 5.28 136 10.56 136 16 C91.12 16 46.24 16 0 16 C0 10.72 0 5.44 0 0 Z " fill="#112A63" transform="translate(52,24)"/>
<path d="M0 0 C15.18 0 30.36 0 46 0 C46 14.52 46 29.04 46 44 C30.82 44 15.64 44 0 44 C0 29.48 0 14.96 0 0 Z " fill="#315284" transform="translate(222,109)"/>
<path d="M0 0 C15.18 0 30.36 0 46 0 C46 14.19 46 28.38 46 43 C30.82 43 15.64 43 0 43 C0 28.81 0 14.62 0 0 Z " fill="#325385" transform="translate(222,64)"/>
<path d="M0 0 C15.18 0 30.36 0 46 0 C46 14.19 46 28.38 46 43 C30.82 43 15.64 43 0 43 C0 28.81 0 14.62 0 0 Z " fill="#325385" transform="translate(222,18)"/>
<path d="M0 0 C2.17426459 -0.00221087 4.34803985 -0.02050268 6.5222168 -0.03930664 C7.91869946 -0.04223725 9.3151845 -0.04422427 10.71166992 -0.04516602 C11.96246338 -0.0492749 13.21325684 -0.05338379 14.50195312 -0.05761719 C17.75887381 0.17880479 19.96915904 0.67444617 22.84838867 2.18530273 C24.32671127 5.14194793 23.9087165 7.9276001 23.84838867 11.18530273 C24.17838867 10.19530273 24.50838867 9.20530273 24.84838867 8.18530273 C25.50838867 8.18530273 26.16838867 8.18530273 26.84838867 8.18530273 C26.53588867 10.56030273 26.53588867 10.56030273 25.84838867 13.18530273 C24.85838867 13.84530273 23.86838867 14.50530273 22.84838867 15.18530273 C23.83838867 15.68030273 23.83838867 15.68030273 24.84838867 16.18530273 C24.84838867 16.84530273 24.84838867 17.50530273 24.84838867 18.18530273 C22.20838867 18.18530273 19.56838867 18.18530273 16.84838867 18.18530273 C16.84838867 16.86530273 16.84838867 15.54530273 16.84838867 14.18530273 C16.18838867 13.19530273 15.52838867 12.20530273 14.84838867 11.18530273 C14.84838867 9.86530273 14.84838867 8.54530273 14.84838867 7.18530273 C15.50838867 7.18530273 16.16838867 7.18530273 16.84838867 7.18530273 C16.35338867 4.71030273 16.35338867 4.71030273 15.84838867 2.18530273 C8.91838867 1.69030273 8.91838867 1.69030273 1.84838867 1.18530273 C1.84838867 1.84530273 1.84838867 2.50530273 1.84838867 3.18530273 C1.18838867 3.18530273 0.52838867 3.18530273 -0.15161133 3.18530273 C0.34338867 5.16530273 0.34338867 5.16530273 0.84838867 7.18530273 C1.83838867 6.52530273 2.82838867 5.86530273 3.84838867 5.18530273 C4.83838867 5.18530273 5.82838867 5.18530273 6.84838867 5.18530273 C6.84838867 7.82530273 6.84838867 10.46530273 6.84838867 13.18530273 C2.84838867 13.18530273 2.84838867 13.18530273 0.84838867 12.18530273 C0.84838867 13.17530273 0.84838867 14.16530273 0.84838867 15.18530273 C0.18838867 15.18530273 -0.47161133 15.18530273 -1.15161133 15.18530273 C-1.15161133 15.84530273 -1.15161133 16.50530273 -1.15161133 17.18530273 C-4.12161133 17.68030273 -4.12161133 17.68030273 -7.15161133 18.18530273 C-5.83161133 18.51530273 -4.51161133 18.84530273 -3.15161133 19.18530273 C-3.15161133 19.84530273 -3.15161133 20.50530273 -3.15161133 21.18530273 C-6.99023172 22.46484286 -10.64964023 22.44769458 -14.65161133 22.49780273 C-15.80983398 22.54130859 -15.80983398 22.54130859 -16.99145508 22.58569336 C-22.62153769 22.64911717 -22.62153769 22.64911717 -25.24536133 20.35327148 C-26.15161133 18.18530273 -26.15161133 18.18530273 -25.15161133 15.18530273 C-26.1390332 15.20850586 -27.12645508 15.23170898 -28.14379883 15.25561523 C-29.42512695 15.27366211 -30.70645508 15.29170898 -32.02661133 15.31030273 C-33.94086914 15.34510742 -33.94086914 15.34510742 -35.89379883 15.38061523 C-39.15161133 15.18530273 -39.15161133 15.18530273 -41.15161133 13.18530273 C-41.40161133 9.68530273 -41.40161133 9.68530273 -41.15161133 6.18530273 C-39.15161133 4.18530273 -39.15161133 4.18530273 -35.89379883 3.98999023 C-34.61762695 4.01319336 -33.34145508 4.03639648 -32.02661133 4.06030273 C-30.10461914 4.08737305 -30.10461914 4.08737305 -28.14379883 4.11499023 C-26.66266602 4.14979492 -26.66266602 4.14979492 -25.15161133 4.18530273 C-24.82161133 3.19530273 -24.49161133 2.20530273 -24.15161133 1.18530273 C-16.11058778 0.12832959 -8.09540003 -0.00092276 0 0 Z " fill="#0F2E64" transform="translate(137.151611328125,138.814697265625)"/>
<path d="M0 0 C3.56825467 2.01871847 7.13386093 4.26772186 9 8 C9.5350086 13.36762727 9.66175234 17.69931437 7.1875 22.5625 C4.67234478 25.36510153 3.03951498 26.8593249 -0.7421875 27.37109375 C-9.25468484 27.55153322 -9.25468484 27.55153322 -13.125 24.6875 C-17.20764817 18.83570429 -17.84235004 15.09237933 -17 8 C-13.39978221 1.59961282 -7.35136954 -1.70993394 0 0 Z " fill="#F3C0A8" transform="translate(248,72)"/>
<path d="M0 0 C44.88 0 89.76 0 136 0 C136 0.33 136 0.66 136 1 C91.45 1 46.9 1 1 1 C1 2.65 1 4.3 1 6 C5.455 5.505 5.455 5.505 10 5 C10 6.98 10 8.96 10 11 C9.01 11.495 9.01 11.495 8 12 C8 12.99 8 13.98 8 15 C9.98 15 11.96 15 14 15 C14.13277344 14.36191406 14.26554687 13.72382812 14.40234375 13.06640625 C14.57894531 12.24011719 14.75554687 11.41382813 14.9375 10.5625 C15.11152344 9.73878906 15.28554687 8.91507813 15.46484375 8.06640625 C16 6 16 6 17 5 C19.67058851 4.85884839 22.32432238 4.95752893 25 5 C25 5.66 25 6.32 25 7 C25.99 6.34 26.98 5.68 28 5 C30.6875 5.375 30.6875 5.375 33 6 C33.495 8.475 33.495 8.475 34 11 C34 9.35 34 7.7 34 6 C34.66 6.33 35.32 6.66 36 7 C36 8.98 36 10.96 36 13 C39.465 12.505 39.465 12.505 43 12 C42.67 12.66 42.34 13.32 42 14 C88.53 14.495 88.53 14.495 136 15 C136 15.33 136 15.66 136 16 C91.12 16 46.24 16 0 16 C0 10.72 0 5.44 0 0 Z " fill="#09193E" transform="translate(52,24)"/>
<path d="M0 0 C2.31 0 4.62 0 7 0 C7 26.4 7 52.8 7 80 C4.69 80 2.38 80 0 80 C0 53.6 0 27.2 0 0 Z " fill="#102B64" transform="translate(53,49)"/>
<path d="M0 0 C4.06434331 1.92833807 6.51572181 4.27358271 9 8 C9.74426249 13.02809889 9.53541366 16.96609776 7.1875 21.5 C5 24 5 24 2 26 C1.01 26 0.02 26 -1 26 C-0.67 24.35 -0.34 22.7 0 21 C-2.97 21 -5.94 21 -9 21 C-8.67 22.65 -8.34 24.3 -8 26 C-10.66239772 25.92393149 -12.42317436 25.50823016 -14.4453125 23.7265625 C-17.90659153 19.51369145 -18.7678052 15.78062165 -18.49609375 10.37109375 C-16.57499888 1.18916787 -8.28398702 -1.25514955 0 0 Z " fill="#BE9686" transform="translate(248,118)"/>
<path d="M0 0 C1.09563483 0.00054477 2.19126966 0.00108953 3.32010555 0.00165081 C5.20262524 -0.00464092 5.20262524 -0.00464092 7.12317562 -0.01105976 C8.52165967 -0.00557589 9.92014294 0.0001071 11.31862545 0.00596905 C12.78526043 0.00489661 14.25189499 0.00295849 15.71852779 0.00021648 C19.70806034 -0.00464069 23.69748144 0.00303432 27.68700051 0.01316953 C31.85456709 0.02193444 36.02213002 0.0201929 40.18970394 0.01980877 C47.18826323 0.02074603 54.18677922 0.02943886 61.18532467 0.04307842 C69.28784066 0.05881073 77.39030923 0.06407635 85.4928394 0.06334287 C93.27442973 0.06273347 101.05600454 0.06783049 108.83759022 0.07613468 C112.15536717 0.07967398 115.47313864 0.08149885 118.7909174 0.08202839 C122.69375386 0.08302967 126.5965502 0.08910858 130.49937344 0.09919453 C131.93574115 0.10212624 133.37211349 0.10334355 134.80848408 0.10276699 C136.76109269 0.10227963 138.71369961 0.10852563 140.66629696 0.1151762 C141.76155477 0.11685205 142.85681257 0.11852789 143.98526001 0.12025452 C146.42970943 0.24888897 146.42970943 0.24888897 147.42970943 1.24888897 C147.52552765 2.77974736 147.55159052 4.31502653 147.54996395 5.84887981 C147.55202595 7.34024708 147.55202595 7.34024708 147.5541296 8.86174297 C147.55053432 9.96153484 147.54693905 11.06132671 147.54323483 12.19444561 C147.54338085 13.34551296 147.54352688 14.49658031 147.54367733 15.6825285 C147.54297761 19.50805288 147.53518246 23.33352928 147.52736568 27.15904522 C147.52550171 29.8032049 147.52407771 32.44736493 147.52307796 35.09152508 C147.51996493 41.35304314 147.51175191 47.61454383 147.50172848 53.87605423 C147.49056648 61.00290434 147.48505667 68.12975527 147.48003304 75.25661194 C147.46956928 89.92071327 147.45197037 104.58480087 147.42970943 119.24888897 C147.09970943 119.24888897 146.76970943 119.24888897 146.42970943 119.24888897 C146.42970943 80.96888897 146.42970943 42.68888897 146.42970943 3.24888897 C143.24979809 2.18891852 140.99460871 2.12051287 137.65357113 2.1151762 C135.84688457 2.10877872 135.84688457 2.10877872 134.0036993 2.10225201 C132.66710564 2.10260152 131.33051201 2.10306305 129.99391842 2.1036253 C128.58787096 2.10063355 127.18182432 2.09723098 125.77577877 2.09344769 C121.95569164 2.0846072 118.13562691 2.08226961 114.31553054 2.0816319 C111.12937529 2.08068304 107.94322527 2.07700518 104.75707203 2.0734598 C97.24373298 2.06531581 89.73040591 2.0628756 82.21706295 2.06358624 C74.45705455 2.0641877 66.69711551 2.05362213 58.93712467 2.03784257 C52.28060911 2.02478741 45.62411628 2.01940145 38.96758801 2.02004164 C34.98919745 2.02029714 31.01086858 2.0174175 27.03249073 2.00686359 C23.29377186 1.99721604 19.5551741 1.99708025 15.81645107 2.00438023 C14.44177544 2.00543011 13.0670924 2.00303943 11.69242954 1.99701977 C9.82125613 1.98935427 7.95004182 1.9951192 6.0788641 2.00165081 C4.5056774 2.00083366 4.5056774 2.00083366 2.90070915 2 C0.25336174 2.00344808 0.25336174 2.00344808 -1.57029057 4.24888897 C-1.88409002 6.37177567 -1.88409002 6.37177567 -1.84876347 8.85524273 C-1.85992695 9.82561977 -1.87109043 10.79599682 -1.8825922 11.79577923 C-1.88475239 12.86392361 -1.88691257 13.93206799 -1.88913822 15.03258038 C-1.89918385 16.15453304 -1.90922947 17.27648571 -1.91957951 18.43243694 C-1.95056506 22.15510305 -1.96748936 25.87769676 -1.98435307 29.60045147 C-2.00305234 32.17592785 -2.0226248 34.75139802 -2.04303837 37.32686138 C-2.089232 43.42185634 -2.12659303 49.51684731 -2.15971124 55.61192548 C-2.1979014 62.55022914 -2.24731962 69.48843847 -2.2976954 76.42666268 C-2.40108114 90.70066703 -2.49031987 104.97473521 -2.57029057 119.24888897 C-3.23029057 119.24888897 -3.89029057 119.24888897 -4.57029057 119.24888897 C-4.61696833 104.0285421 -4.65225865 88.80819853 -4.67391491 73.58779621 C-4.68423662 66.52102678 -4.69831398 59.45430177 -4.72116947 52.38756084 C-4.74319884 45.57301568 -4.75484587 38.75851678 -4.76004505 31.94393826 C-4.76375216 29.33870878 -4.77099074 26.73348195 -4.78175068 24.12827206 C-4.79618188 20.49084961 -4.79827202 16.8536204 -4.79734135 13.21617413 C-4.8045319 12.12932827 -4.81172245 11.04248241 -4.8191309 9.92270184 C-4.81638157 8.93549648 -4.81363224 7.94829113 -4.8107996 6.93117046 C-4.81264318 6.07021582 -4.81448677 5.20926117 -4.81638622 4.32221699 C-4.42353288 1.01247212 -3.21902794 0.31170816 0 0 Z " fill="#030C21" transform="translate(48.57029056549072,16.751111030578613)"/>
<path d="M0 0 C6.54040395 0.65265022 9.93728769 5.30198434 14.34936523 9.77294922 C15.80991218 11.24738757 17.29289421 12.69621627 18.77929688 14.14453125 C19.70419922 15.07136719 20.62910156 15.99820313 21.58203125 16.953125 C22.42999268 17.80036133 23.2779541 18.64759766 24.15161133 19.52050781 C26.23842644 22.31983344 26.43052628 23.59385574 26 27 C25.38125 27.2475 24.7625 27.495 24.125 27.75 C21.8883824 28.80504039 21.8883824 28.80504039 21.08935547 30.83496094 C19.00640947 34.97471108 15.3707446 37.99851072 12.125 41.25 C11.40441406 41.99507812 10.68382812 42.74015625 9.94140625 43.5078125 C9.24144531 44.21164063 8.54148438 44.91546875 7.8203125 45.640625 C6.86535889 46.60790527 6.86535889 46.60790527 5.89111328 47.59472656 C4 49 4 49 0 49 C0 48.34 0 47.68 0 47 C-0.66 47 -1.32 47 -2 47 C-1.60867218 42.09061466 0.80679911 39.70945879 4.25 36.5 C4.72824219 36.03980469 5.20648438 35.57960937 5.69921875 35.10546875 C8.06973735 32.82488853 10.46151469 30.59031317 12.921875 28.40625 C13.60765625 27.6121875 14.2934375 26.818125 15 26 C14.71242439 22.4474109 13.17214119 20.88670981 10.5859375 18.57421875 C9.90789062 17.94193359 9.22984375 17.30964844 8.53125 16.65820312 C7.09529218 15.34581051 5.64992507 14.04363866 4.1953125 12.75195312 C2.23760673 10.90819779 0.51492188 9.22373336 -1 7 C-0.9609375 3.01953125 -0.9609375 3.01953125 0 0 Z " fill="#01040C" transform="translate(147,65)"/>
<path d="M0 0 C0.5775 0.21914062 1.155 0.43828125 1.75 0.6640625 C2.47265625 2.38671875 2.47265625 2.38671875 2.75 4.6640625 C1.30859375 6.84765625 1.30859375 6.84765625 -0.8125 9.1015625 C-1.54855469 9.88660156 -2.28460938 10.67164062 -3.04296875 11.48046875 C-5.6567245 14.0664678 -8.39408124 16.35212826 -11.25 18.6640625 C-11.91 19.6540625 -12.57 20.6440625 -13.25 21.6640625 C-13.91 21.6640625 -14.57 21.6640625 -15.25 21.6640625 C-13.53391136 25.20349532 -11.46015133 27.47534936 -8.5 29.9765625 C-5.58191879 32.46153332 -2.8135868 34.99456933 -0.1875 37.7890625 C0.40160156 38.41039062 0.99070312 39.03171875 1.59765625 39.671875 C2.75 41.6640625 2.75 41.6640625 2.43359375 44.40625 C2.09521484 45.52386719 2.09521484 45.52386719 1.75 46.6640625 C-0.375 47.4765625 -0.375 47.4765625 -3.25 47.6640625 C-7.66734508 44.68715603 -10.89116084 40.90464622 -14.30078125 36.84375 C-17.17574485 33.62886084 -20.39696829 30.79388332 -23.625 27.9375 C-25.25 25.6640625 -25.25 25.6640625 -25.30078125 22.67578125 C-24.01147833 18.9804186 -22.44973934 17.56692383 -19.4375 15.1015625 C-15.90135809 12.17131787 -13.09564295 9.26007783 -10.25 5.6640625 C-8.25 3.828125 -8.25 3.828125 -6.25 2.2890625 C-5.59 1.76570313 -4.93 1.24234375 -4.25 0.703125 C-2.25 -0.3359375 -2.25 -0.3359375 0 0 Z " fill="#01040C" transform="translate(92.25,66.3359375)"/>
<path d="M0 0 C3.73685912 -0.54495862 5.87957268 -0.62949804 9.2109375 1.2421875 C12.93377004 4.15863032 15.44629029 6.68572103 16.3125 11.4375 C16.44536786 16.61934659 14.32909049 20.16704717 11 24 C7.39864769 27.20120205 3.89777687 27.57784256 -0.78125 27.421875 C-4.64770813 26.68670338 -6.3349795 24.860022 -9 22 C-11.87654725 17.34792876 -11.79151094 12.29763759 -11 7 C-8.625 3.8125 -8.625 3.8125 -6 2 C-5.34 2 -4.68 2 -4 2 C-3.67 6.62 -3.34 11.24 -3 16 C-1.535625 15.05125 -0.07125 14.1025 1.4375 13.125 C2.26121094 12.59132813 3.08492187 12.05765625 3.93359375 11.5078125 C6.11038871 10.16165694 6.11038871 10.16165694 7 8 C7.66 8 8.32 8 9 8 C7.01487051 4.88794071 7.01487051 4.88794071 3.8125 3.25 C3.214375 3.1675 2.61625 3.085 2 3 C2 2.34 2 1.68 2 1 C1.34 0.67 0.68 0.34 0 0 Z " fill="#F5BBAA" transform="translate(243,26)"/>
<path d="M0 0 C0.721875 0.165 1.44375 0.33 2.1875 0.5 C2.96090237 3.24774011 3.40027807 4.91988863 2.40234375 7.640625 C1.98082031 8.33671875 1.55929688 9.0328125 1.125 9.75 C0.65707031 10.53503906 0.18914062 11.32007812 -0.29296875 12.12890625 C-1.71521841 14.34820071 -3.18934423 16.51901039 -4.6875 18.6875 C-8.72264619 24.6098851 -11.69675973 31.064827 -14.8125 37.5 C-15.80976059 39.50136736 -16.80886309 41.50182259 -17.8125 43.5 C-18.4725 43.5 -19.1325 43.5 -19.8125 43.5 C-20.080625 44.386875 -20.34875 45.27375 -20.625 46.1875 C-21.72960819 49.26877548 -23.04099144 51.76221405 -24.8125 54.5 C-26.4625 54.17 -28.1125 53.84 -29.8125 53.5 C-30.5234375 51.95703125 -30.5234375 51.95703125 -30.8125 49.5 C-29.79218189 46.93130441 -28.72303551 44.61793821 -27.4375 42.1875 C-26.89536865 41.1344165 -26.89536865 41.1344165 -26.34228516 40.06005859 C-22.78772164 33.25412837 -18.86129689 26.68382708 -14.82910156 20.15283203 C-13.38385388 17.80308977 -11.97379319 15.43274881 -10.5625 13.0625 C-10.09457031 12.29292969 -9.62664062 11.52335937 -9.14453125 10.73046875 C-8.23613775 9.20937582 -7.35956336 7.66893608 -6.51171875 6.11328125 C-3.40709991 0.60570665 -3.40709991 0.60570665 0 0 Z " fill="#01030C" transform="translate(133.8125,62.5)"/>
<path d="M0 0 C30.90567621 -0.09119343 61.81131694 -0.1620092 92.71709569 -0.20426132 C96.3633993 -0.20926432 100.00970265 -0.21444159 103.65600586 -0.21972656 C104.74490455 -0.22130043 104.74490455 -0.22130043 105.85580119 -0.22290608 C117.61966079 -0.2403251 129.38344244 -0.27187098 141.14725576 -0.30861118 C153.21240778 -0.34597906 165.27751889 -0.36822703 177.34272641 -0.37635398 C184.79139456 -0.38185042 192.23984238 -0.39922816 199.68844273 -0.43166587 C205.39403823 -0.45525167 211.09949165 -0.45783037 216.80512619 -0.45243073 C219.15015078 -0.45353516 221.49518338 -0.46154433 223.84015846 -0.4768219 C227.03175693 -0.49660295 230.222398 -0.49198234 233.41401672 -0.48101807 C234.35077864 -0.49266943 235.28754055 -0.5043208 236.25268918 -0.51632524 C242.42650024 -0.45864431 242.42650024 -0.45864431 245.07657623 1.66069794 C246.22100467 4.55986937 246.36897946 6.78780508 246.36076355 9.90985107 C246.36694954 11.7229351 246.36694954 11.7229351 246.3732605 13.57264709 C246.36264387 14.9087852 246.35173945 16.24492104 246.34057617 17.58105469 C246.33972979 18.99049359 246.34020525 20.39993382 246.34190369 21.80937195 C246.34276465 25.63350919 246.32512263 29.45736431 246.30418181 33.28143597 C246.28543187 37.27861286 246.2836659 41.27579617 246.28010559 45.27301025 C246.27078017 52.84133165 246.24615969 60.40952309 246.21605712 67.97778726 C246.18252856 76.59438455 246.16603099 85.21098805 246.15097082 93.82763433 C246.11961055 111.55182991 246.06684041 129.27590451 246 147 C245.67 147 245.34 147 245 147 C244.99576806 146.45043577 244.99153612 145.90087154 244.98717594 145.33465385 C244.88272291 131.80486717 244.773896 118.27512132 244.66066074 104.7454052 C244.60602071 98.20186605 244.55271068 91.65832228 244.50268555 85.11474609 C244.25134309 45.04634811 244.25134309 45.04634811 243 5 C241.02 4.01 241.02 4.01 239 3 C239 2.34 239 1.68 239 1 C160.13 1 81.26 1 0 1 C0 0.67 0 0.34 0 0 Z " fill="#0B2451" transform="translate(27,10)"/>
<path d="M0 0 C3.56825467 2.01871847 7.13386093 4.26772186 9 8 C9.49988513 13.01524102 10.00045732 18.20269608 7.25 22.625 C5.05671496 24.94013421 4.1323445 25.77626111 1 26 C1.33 24.02 1.66 22.04 2 20 C2.99 19.67 3.98 19.34 5 19 C4.65488627 11.90254512 4.65488627 11.90254512 1 6 C1 5.34 1 4.68 1 4 C-0.6266848 4.28211877 -2.25132896 4.57602375 -3.875 4.875 C-5.23238281 5.11863281 -5.23238281 5.11863281 -6.6171875 5.3671875 C-9.16505988 5.83044703 -9.16505988 5.83044703 -11 8 C-11.48408633 13.80903592 -10.82239935 16.82560118 -8 22 C-8 23.32 -8 24.64 -8 26 C-11.55127795 25.80270678 -12.79728886 25.20818982 -15.3125 22.625 C-17.62074555 17.6665466 -17.8138563 13.38460483 -17 8 C-13.39978221 1.59961282 -7.35136954 -1.70993394 0 0 Z " fill="#EEF1F4" transform="translate(248,72)"/>
<path d="M0 0 C4.06434331 1.92833807 6.51572181 4.27358271 9 8 C9.74346256 13.02269476 9.49612569 16.99002984 7.25 21.5625 C4.91936515 24.08735442 4.20162702 24.40137646 1 25 C1.165 23.72125 1.33 22.4425 1.5 21.125 C1.87079796 17.6273237 2.17293461 14.13998012 2.3125 10.625 C2.34988281 9.81289062 2.38726562 9.00078125 2.42578125 8.1640625 C2.18114263 5.84567395 2.18114263 5.84567395 0.203125 4.234375 C-2.99245165 2.44394553 -5.40563709 2.60788768 -9 3 C-11.15450858 4.58097042 -11.89691033 5.49383902 -12.43359375 8.12890625 C-12.44434867 14.82921931 -10.87365725 19.9704513 -8 26 C-12.52429525 25.38408754 -12.52429525 25.38408754 -14.58203125 23.72265625 C-17.81075654 19.36643959 -18.76876542 15.79973873 -18.49609375 10.37109375 C-16.57499888 1.18916787 -8.28398702 -1.25514955 0 0 Z " fill="#C5D4E3" transform="translate(248,118)"/>
<path d="M0 0 C3.14581423 -0.02888514 6.29159469 -0.04675923 9.4375 -0.0625 C10.33533203 -0.07087891 11.23316406 -0.07925781 12.15820312 -0.08789062 C13.01220703 -0.09111328 13.86621094 -0.09433594 14.74609375 -0.09765625 C15.93223267 -0.10551147 15.93223267 -0.10551147 17.14233398 -0.11352539 C19 0 19 0 20 1 C22.18292774 1.23481693 24.37203174 1.41363323 26.5625 1.5625 C27.76003906 1.64628906 28.95757812 1.73007813 30.19140625 1.81640625 C31.11824219 1.87699219 32.04507813 1.93757812 33 2 C33 2.33 33 2.66 33 3 C32.00097656 3.06058594 31.00195312 3.12117187 29.97265625 3.18359375 C28.68230469 3.26738281 27.39195313 3.35117188 26.0625 3.4375 C24.77472656 3.51871094 23.48695312 3.59992188 22.16015625 3.68359375 C19.13976043 3.64919188 19.13976043 3.64919188 18 5 C17.63239269 7.32817964 17.29758419 9.6618385 17 12 C16.67 12 16.34 12 16 12 C15.67 10.02 15.34 8.04 15 6 C14.01 6.66 13.02 7.32 12 8 C11.34 7.67 10.68 7.34 10 7 C10.061875 8.175625 10.061875 8.175625 10.125 9.375 C10 12 10 12 8 14 C5.90625 14.265625 5.90625 14.265625 3.5 14.25 C2.7059375 14.25515625 1.911875 14.2603125 1.09375 14.265625 C-1 14 -1 14 -3 12 C-2.9765625 9.8359375 -2.9765625 9.8359375 -2.625 7.375 C-2.51414062 6.55773437 -2.40328125 5.74046875 -2.2890625 4.8984375 C-2.19367188 4.27195313 -2.09828125 3.64546875 -2 3 C-1.34 3 -0.68 3 0 3 C0 2.01 0 1.02 0 0 Z " fill="#053057" transform="translate(79,140)"/>
<path d="M0 0 C1.93166016 0.01740234 1.93166016 0.01740234 3.90234375 0.03515625 C5.19269531 0.04417969 6.48304688 0.05320313 7.8125 0.0625 C8.81152344 0.07410156 9.81054688 0.08570313 10.83984375 0.09765625 C11.16984375 1.08765625 11.49984375 2.07765625 11.83984375 3.09765625 C12.82984375 2.43765625 13.81984375 1.77765625 14.83984375 1.09765625 C15.82984375 1.09765625 16.81984375 1.09765625 17.83984375 1.09765625 C17.83984375 3.73765625 17.83984375 6.37765625 17.83984375 9.09765625 C13.83984375 9.09765625 13.83984375 9.09765625 11.83984375 8.09765625 C11.83984375 9.08765625 11.83984375 10.07765625 11.83984375 11.09765625 C8.9735058 12.53082523 6.46748874 12.22965986 3.27734375 12.22265625 C1.51197266 12.22652344 1.51197266 12.22652344 -0.2890625 12.23046875 C-3.16015625 12.09765625 -3.16015625 12.09765625 -4.16015625 11.09765625 C-4.25839562 9.43336574 -4.28989256 7.76483694 -4.28515625 6.09765625 C-4.28773437 5.19015625 -4.2903125 4.28265625 -4.29296875 3.34765625 C-4.08359213 -0.19943005 -3.64561779 0.11265815 0 0 Z " fill="#F0F6FA" transform="translate(126.16015625,142.90234375)"/>
<path d="M0 0 C2.05078125 0.03255208 4.1015625 0.06510417 6.15234375 0.09765625 C6.15234375 0.75765625 6.15234375 1.41765625 6.15234375 2.09765625 C7.14234375 1.43765625 8.13234375 0.77765625 9.15234375 0.09765625 C11.83984375 0.47265625 11.83984375 0.47265625 14.15234375 1.09765625 C14.48234375 2.74765625 14.81234375 4.39765625 15.15234375 6.09765625 C15.15234375 4.44765625 15.15234375 2.79765625 15.15234375 1.09765625 C15.81234375 1.42765625 16.47234375 1.75765625 17.15234375 2.09765625 C17.15234375 4.07765625 17.15234375 6.05765625 17.15234375 8.09765625 C20.61734375 7.60265625 20.61734375 7.60265625 24.15234375 7.09765625 C23.16234375 8.58265625 23.16234375 8.58265625 22.15234375 10.09765625 C19.44677734 10.43823242 19.44677734 10.43823242 16.05078125 10.390625 C14.23320313 10.37612305 14.23320313 10.37612305 12.37890625 10.36132812 C11.10789062 10.33619141 9.836875 10.31105469 8.52734375 10.28515625 C7.24859375 10.27162109 5.96984375 10.25808594 4.65234375 10.24414062 C1.48526093 10.20868821 -1.68099166 10.15927066 -4.84765625 10.09765625 C-4.53967299 8.61754254 -4.22613825 7.138583 -3.91015625 5.66015625 C-3.73613281 4.83644531 -3.56210938 4.01273438 -3.3828125 3.1640625 C-2.59896099 0.1373658 -2.59896099 0.1373658 0 0 Z " fill="#13295D" transform="translate(70.84765625,28.90234375)"/>
<path d="M0 0 C15.18 0 30.36 0 46 0 C46 1.32 46 2.64 46 4 C30.82 4 15.64 4 0 4 C0 2.68 0 1.36 0 0 Z " fill="#190E23" transform="translate(125,176)"/>
<path d="M0 0 C1.1653125 0.00515625 2.330625 0.0103125 3.53125 0.015625 C4.6965625 0.01046875 5.861875 0.0053125 7.0625 0 C10.03125 0.265625 10.03125 0.265625 12.03125 2.265625 C12.35877234 4.98017456 12.1620925 7.51793259 12.03125 10.265625 C10.09783053 12.19904447 6.65645879 11.44011633 4.09375 11.453125 C2.82660156 11.46730469 1.55945313 11.48148438 0.25390625 11.49609375 C-2.96875 11.265625 -2.96875 11.265625 -4.96875 9.265625 C-5.21875 5.765625 -5.21875 5.765625 -4.96875 2.265625 C-2.96875 0.265625 -2.96875 0.265625 0 0 Z " fill="#DBE1EB" transform="translate(100.96875,142.734375)"/>
<path d="M0 0 C1.08954987 -0.00137466 2.17909973 -0.00274933 3.30166626 -0.00416565 C5.09485542 0.00122726 5.09485542 0.00122726 6.92427063 0.00672913 C8.81224365 0.00651009 8.81224365 0.00651009 10.73835754 0.00628662 C14.19056338 0.00599941 17.64273455 0.01188381 21.09493232 0.01886058 C24.70241607 0.02510681 28.30990059 0.02569892 31.91738892 0.02688599 C38.74903677 0.02999555 45.58066865 0.0382039 52.41230947 0.04823548 C60.18973792 0.05940824 67.96716713 0.06491 75.74460161 0.06993091 C91.74370952 0.08038681 107.74280149 0.09797901 123.74189758 0.12025452 C123.74189758 0.45025452 123.74189758 0.78025452 123.74189758 1.12025452 C122.76702503 1.12521974 122.76702503 1.12521974 121.77245808 1.13028526 C105.956467 1.21151589 90.14058207 1.30360853 74.32472706 1.4077816 C66.67628795 1.45789721 59.02785951 1.50434025 51.37934875 1.54212952 C44.71268276 1.57507708 38.04609974 1.61492356 31.37952536 1.66304457 C27.84983062 1.68828213 24.32019073 1.71007146 20.79043007 1.72359848 C16.84942938 1.73883077 12.90863011 1.7694658 8.96772766 1.80140686 C7.79816025 1.80356705 6.62859283 1.80572723 5.42358398 1.80795288 C3.81037766 1.8246981 3.81037766 1.8246981 2.1645813 1.84178162 C0.76668224 1.85007775 0.76668224 1.85007775 -0.65945721 1.85854149 C-5.1396062 2.30974327 -8.31116791 3.70801456 -11.25810242 7.12025452 C-11.25810242 4.12025452 -11.25810242 4.12025452 -9.94560242 2.49525452 C-6.81616275 -0.05465929 -3.86812811 -0.00375911 0 0 Z " fill="#0D0C0E" transform="translate(29.258102416992188,0.8797454833984375)"/>
<path d="M0 0 C-0.02320313 1.04800781 -0.04640625 2.09601562 -0.0703125 3.17578125 C-0.08907303 4.55468037 -0.10727293 5.9335872 -0.125 7.3125 C-0.14175781 8.00279297 -0.15851563 8.69308594 -0.17578125 9.40429688 C-0.21217794 13.17135396 -0.14378864 14.78431704 2 18 C2.125 20.6875 2.125 20.6875 2 23 C-1.55127795 22.80270678 -2.79728886 22.20818982 -5.3125 19.625 C-7.61193028 14.68548309 -7.96983739 10.36263029 -7 5 C-3.2745098 0 -3.2745098 0 0 0 Z " fill="#F5F5F6" transform="translate(239,28)"/>
<path d="M0 0 C3.73685912 -0.54495862 5.87957268 -0.62949804 9.2109375 1.2421875 C12.93377004 4.15863032 15.44629029 6.68572103 16.3125 11.4375 C16.44376226 16.54797717 14.42847403 20.3001428 11 24 C8.1875 25.5 8.1875 25.5 6 26 C7.05875074 22.59687262 8.00902154 19.98646769 10 17 C10.683709 12.6830932 10.79264865 9.13235522 8.25 5.5 C6.0891745 4.05944967 4.55390984 3.36484426 2 3 C2 2.34 2 1.68 2 1 C1.34 0.67 0.68 0.34 0 0 Z " fill="#D7DCE5" transform="translate(243,26)"/>
<path d="M0 0 C1.32 0 2.64 0 4 0 C4 0.66 4 1.32 4 2 C4.78375 2.0825 5.5675 2.165 6.375 2.25 C9 3 9 3 10.3125 5.0625 C10.6528125 6.0215625 10.6528125 6.0215625 11 7 C10.34 7 9.68 7 9 7 C8.79375 7.5775 8.5875 8.155 8.375 8.75 C6.48374778 11.84477636 4.09964063 13.1918763 1 15 C0.34 15 -0.32 15 -1 15 C-2.01603857 9.20858017 -1.96263236 5.5415502 0 0 Z " fill="#130E0D" transform="translate(241,27)"/>
<path d="M0 0 C1.67542976 0.28604898 3.34385343 0.61781233 5 1 C5 3.31 5 5.62 5 8 C5.33 7.01 5.66 6.02 6 5 C6.66 5 7.32 5 8 5 C7.6875 7.375 7.6875 7.375 7 10 C6.01 10.66 5.02 11.32 4 12 C4.66 12.33 5.32 12.66 6 13 C6 13.66 6 14.32 6 15 C3.36 15 0.72 15 -2 15 C-2 13.68 -2 12.36 -2 11 C-2.33 10.67 -2.66 10.34 -3 10 C-3.04063832 8.33382885 -3.042721 6.66611905 -3 5 C-2.01 6.485 -2.01 6.485 -1 8 C-1.020625 6.865625 -1.04125 5.73125 -1.0625 4.5625 C-1 1 -1 1 0 0 Z " fill="#9DB3D7" transform="translate(156,142)"/>
<path d="M0 0 C0.03738281 0.58007812 0.07476562 1.16015625 0.11328125 1.7578125 C0.54450671 6.8817856 1.54723813 10.41440172 4 15 C4 16.32 4 17.64 4 19 C0.44872205 18.80270678 -0.79728886 18.20818982 -3.3125 15.625 C-5.61504555 10.67879104 -5.34373396 6.36606902 -5 1 C-2 0 -2 0 0 0 Z " fill="#F0F2F3" transform="translate(236,79)"/>
<path d="M0 0 C3.375 -0.125 3.375 -0.125 7 0 C9 2 9 2 9.1875 5 C9 8 9 8 8 10 C1.9453125 10.1953125 1.9453125 10.1953125 0 10 C-2 8 -2 8 -2.125 4.875 C-2.08375 3.92625 -2.0425 2.9775 -2 2 C-1.34 2 -0.68 2 0 2 C0 1.34 0 0.68 0 0 Z " fill="#06C10E" transform="translate(78,144)"/>
<path d="M0 0 C2.9375 1.5625 2.9375 1.5625 5 4 C5.3125 7.75 5.3125 7.75 5 11 C3 8 3 8 3 6 C1.20541055 6.22807491 -0.58575449 6.48322303 -2.375 6.75 C-3.37273437 6.88921875 -4.37046875 7.0284375 -5.3984375 7.171875 C-8.14561047 7.74386889 -8.14561047 7.74386889 -9.3515625 10.078125 C-9.56554687 10.71234375 -9.77953125 11.3465625 -10 12 C-11.42041821 9.15916359 -11.31452272 7.14522722 -11 4 C-8.05127687 -0.48205916 -5.14006617 -0.7214128 0 0 Z " fill="#191212" transform="translate(246,120)"/>
<path d="M0 0 C2.5 2.625 2.5 2.625 4 6 C3.75 9.375 3.75 9.375 3 12 C2.34 12 1.68 12 1 12 C-0.02611949 10.34928604 -1.02308143 8.68029994 -2 7 C-3.33378575 5.1645201 -3.33378575 5.1645201 -5 4 C-6.32 4 -7.64 4 -9 4 C-9.66 6.64 -10.32 9.28 -11 12 C-11.66 12 -12.32 12 -13 12 C-13.36681223 4.54148472 -13.36681223 4.54148472 -11.6875 2.0625 C-7.89259038 -0.32688754 -4.367098 -0.53631028 0 0 Z " fill="#231A18" transform="translate(249,76)"/>
<path d="M0 0 C1.8871875 0.0309375 1.8871875 0.0309375 3.8125 0.0625 C3.8125 0.3925 3.8125 0.7225 3.8125 1.0625 C2.1625 1.3925 0.5125 1.7225 -1.1875 2.0625 C-1.0225 2.825625 -0.8575 3.58875 -0.6875 4.375 C-0.1875 7.0625 -0.1875 7.0625 -0.1875 10.0625 C-0.80625 10.18625 -1.425 10.31 -2.0625 10.4375 C-4.37870832 10.93447356 -4.37870832 10.93447356 -6.1875 13.0625 C-6.8475 13.0625 -7.5075 13.0625 -8.1875 13.0625 C-10.25952216 8.67468837 -10.25952216 8.67468837 -9.9375 5.9375 C-9.1875 4.0625 -9.1875 4.0625 -7.1875 1.0625 C-4.43671116 0.14557039 -2.82801087 -0.04636083 0 0 Z " fill="#F7C0A6" transform="translate(245.1875,125.9375)"/>
<path d="M0 0 C2.0625 0.4375 2.0625 0.4375 4 1 C4.36258758 6.09636993 4.54014017 9.90042893 2.25 14.5625 C0.05609944 16.9392256 -0.82865008 17.77347501 -4 18 C-3.37236731 11.47262005 -3.37236731 11.47262005 -1.375 8.9375 C0.35584545 6.95703216 0.35584545 6.95703216 -0.375 3.8125 C-0.58125 2.884375 -0.7875 1.95625 -1 1 C-0.67 0.67 -0.34 0.34 0 0 Z " fill="#E7F0F7" transform="translate(253,125)"/>
<path d="M0 0 C1.56349617 2.9180769 2.59784181 5.75543117 3.5 8.9375 C4.50149382 12.37918181 5.57244342 15.70563866 7 19 C3.40668306 18.80037128 2.20171045 18.21261372 -0.3125 15.5625 C-2.46774606 11.0125361 -2.76901597 6.9717777 -2 2 C-1.34 1.34 -0.68 0.68 0 0 Z " fill="#F9FAF9" transform="translate(233,125)"/>
<path d="M0 0 C1.99954746 -0.04254356 4.00041636 -0.04080783 6 0 C7 1 7 1 7.25 4.3125 C6.977526 8.33149156 6.48826587 9.05094416 4 12 C3.505 13.216875 3.01 14.43375 2.5 15.6875 C2.005 16.780625 1.51 17.87375 1 19 C0.01 19.33 -0.98 19.66 -2 20 C-2.66317761 21.84272733 -2.66317761 21.84272733 -3 24 C-3.43242416 25.40407603 -3.89093896 26.80037886 -4.375 28.1875 C-4.60960938 28.88230469 -4.84421875 29.57710937 -5.0859375 30.29296875 C-6 32 -6 32 -9 33 C-9 33.99 -9 34.98 -9 36 C-9.66 36 -10.32 36 -11 36 C-7.8998601 27.73296026 -3.47855569 20.39603963 1.1953125 12.953125 C4.36665733 7.87313329 4.36665733 7.87313329 5 2 C3.35 1.67 1.7 1.34 0 1 C0 0.67 0 0.34 0 0 Z " fill="#0F1F49" transform="translate(131,62)"/>
<path d="M0 0 C1.76462683 3.08809695 2 4.23312136 2 8 C4.31 6.68 6.62 5.36 9 4 C9 4.99 9 5.98 9 7 C8.01 7.33 7.02 7.66 6 8 C5.67 8.66 5.34 9.32 5 10 C5.99 10.33 6.98 10.66 8 11 C7.01 11.33 6.02 11.66 5 12 C5.33 13.32 5.66 14.64 6 16 C7.65 16.33 9.3 16.66 11 17 C11 17.66 11 18.32 11 19 C9.54207116 19.05399736 8.08357288 19.09279177 6.625 19.125 C5.40683594 19.15980469 5.40683594 19.15980469 4.1640625 19.1953125 C2 19 2 19 0 17 C0.99 17 1.98 17 3 17 C1.69844994 12.92035719 1.69844994 12.92035719 0 9 C-0.06950541 7.45976004 -0.08452357 5.91665012 -0.0625 4.375 C-0.05347656 3.55773438 -0.04445312 2.74046875 -0.03515625 1.8984375 C-0.02355469 1.27195313 -0.01195312 0.64546875 0 0 Z " fill="#D8AEA5" transform="translate(238,34)"/>
<path d="M0 0 C2.89608593 -0.05413245 5.79115195 -0.09373641 8.6875 -0.125 C9.50412109 -0.14175781 10.32074219 -0.15851563 11.16210938 -0.17578125 C15.57092929 -0.2114802 18.98731576 -0.07580814 23 2 C21.02 2.99 21.02 2.99 19 4 C18.73067479 8.65052872 18.73067479 8.65052872 20 13 C18.35 12.34 16.7 11.68 15 11 C15 9.68 15 8.36 15 7 C15.66 7 16.32 7 17 7 C16.67 5.35 16.34 3.7 16 2 C9.07 1.505 9.07 1.505 2 1 C2 1.66 2 2.32 2 3 C-0.88415883 4.44207941 -3.41721528 4.09394887 -6.625 4.0625 C-7.81351563 4.05347656 -9.00203125 4.04445312 -10.2265625 4.03515625 C-11.14179687 4.02355469 -12.05703125 4.01195312 -13 4 C-13 3.67 -13 3.34 -13 3 C-12.14535156 2.95101562 -11.29070312 2.90203125 -10.41015625 2.8515625 C-9.30542969 2.77679688 -8.20070312 2.70203125 -7.0625 2.625 C-5.40927734 2.52058594 -5.40927734 2.52058594 -3.72265625 2.4140625 C-2.37494141 2.20910156 -2.37494141 2.20910156 -1 2 C-0.67 1.34 -0.34 0.68 0 0 Z " fill="#2A4571" transform="translate(137,139)"/>
<path d="M0 0 C0.66 0.33 1.32 0.66 2 1 C2.33242149 5.15526857 2.22487823 7.55857236 0.3125 11.3125 C-2.06582992 14.07650505 -3.53371274 15.03714243 -7 16 C-5.35433477 10.31497465 -2.70967216 5.23318364 0 0 Z " fill="#F5F9FC" transform="translate(256,36)"/>
<path d="M0 0 C1.8871875 0.061875 1.8871875 0.061875 3.8125 0.125 C4.1425 0.785 4.4725 1.445 4.8125 2.125 C2.62942968 4.30807032 1.33414953 4.76846336 -1.5625 5.6875 C-2.71878906 6.06068359 -2.71878906 6.06068359 -3.8984375 6.44140625 C-4.65382812 6.66699219 -5.40921875 6.89257812 -6.1875 7.125 C-6.90164062 7.34027344 -7.61578125 7.55554688 -8.3515625 7.77734375 C-10.1875 8.125 -10.1875 8.125 -12.1875 7.125 C-5.08758361 -0.16680602 -5.08758361 -0.16680602 0 0 Z " fill="#D6DFE8" transform="translate(244.1875,71.875)"/>
<path d="M0 0 C0.66 0 1.32 0 2 0 C1.67 0.99 1.34 1.98 1 3 C-15.5 3 -32 3 -49 3 C-49 2.67 -49 2.34 -49 2 C-38.1799249 1.11365997 -27.47531054 0.89882037 -16.625 1 C-13.67969216 1.02655709 -10.73444402 1.04646352 -7.7890625 1.0625 C-6.50725098 1.07410156 -5.22543945 1.08570313 -3.90478516 1.09765625 C-1.10695645 1.334606 -1.10695645 1.334606 0 0 Z " fill="#000616" transform="translate(193,135)"/>
<path d="M0 0 C0.66 1.32 1.32 2.64 2 4 C3.98 4 5.96 4 8 4 C8.33 2.68 8.66 1.36 9 0 C9.66 0 10.32 0 11 0 C10.6875 2.375 10.6875 2.375 10 5 C9.01 5.66 8.02 6.32 7 7 C7.66 7.33 8.32 7.66 9 8 C9 8.66 9 9.32 9 10 C6.36 10 3.72 10 1 10 C1 8.68 1 7.36 1 6 C0.67 5.67 0.34 5.34 0 5 C-0.04063832 3.33382885 -0.042721 1.66611905 0 0 Z " fill="#90A6C5" transform="translate(153,147)"/>
<path d="M0 0 C2.64 0 5.28 0 8 0 C8 1.98 8 3.96 8 6 C5.36 6 2.72 6 0 6 C0 4.02 0 2.04 0 0 Z " fill="#F4D0D3" transform="translate(99,146)"/>
<path d="M0 0 C0.33 0.66 0.66 1.32 1 2 C1.99 1.34 2.98 0.68 4 0 C4.99 0 5.98 0 7 0 C7 2.64 7 5.28 7 8 C3 8 3 8 1 7 C0.67 7.99 0.34 8.98 0 10 C0.875 5.125 0.875 5.125 2 4 C1.34 3.67 0.68 3.34 0 3 C0 2.01 0 1.02 0 0 Z " fill="#C1CCDA" transform="translate(137,144)"/>
<path d="M0 0 C2.31 0 4.62 0 7 0 C7 0.33 7 0.66 7 1 C5.35 1 3.7 1 2 1 C2 2.98 2 4.96 2 7 C4.97 7.495 4.97 7.495 8 8 C8 8.66 8 9.32 8 10 C1.9453125 10.1953125 1.9453125 10.1953125 0 10 C-2 8 -2 8 -2.125 4.875 C-2.08375 3.92625 -2.0425 2.9775 -2 2 C-1.34 2 -0.68 2 0 2 C0 1.34 0 0.68 0 0 Z " fill="#0C9829" transform="translate(78,144)"/>
<path d="M0 0 C3.3 0.33 6.6 0.66 10 1 C9 5 9 5 7.1875 6.375 C5 7 5 7 2.8125 6.4375 C1 5 1 5 0.25 2.375 C0.1675 1.59125 0.085 0.8075 0 0 Z " fill="#100709" transform="translate(238,138)"/>
<path d="M0 0 C-0.33 0.66 -0.66 1.32 -1 2 C-2.8125 2.5625 -2.8125 2.5625 -5 3 C-6.32 3.33 -7.64 3.66 -9 4 C-9.66 6.64 -10.32 9.28 -11 12 C-11.66 12 -12.32 12 -13 12 C-13.36681223 4.54148472 -13.36681223 4.54148472 -11.6875 2.0625 C-7.87587123 -0.33741441 -4.37120044 -0.08247548 0 0 Z " fill="#453D3A" transform="translate(249,76)"/>
<path d="M0 0 C1.32 0.66 2.64 1.32 4 2 C3.67 2.66 3.34 3.32 3 4 C0.9375 4.625 0.9375 4.625 -1 5 C-0.34 5.33 0.32 5.66 1 6 C1 6.99 1 7.98 1 9 C-0.98 9.33 -2.96 9.66 -5 10 C-3.14285714 2.42857143 -3.14285714 2.42857143 0 0 Z " fill="#D9AB94" transform="translate(242,79)"/>
<path d="M0 0 C0.33 0.99 0.66 1.98 1 3 C-0.21484375 5.04296875 -0.21484375 5.04296875 -1.9375 7.1875 C-2.50339844 7.90292969 -3.06929688 8.61835937 -3.65234375 9.35546875 C-4.09707031 9.89816406 -4.54179688 10.44085938 -5 11 C-3.68 12.32 -2.36 13.64 -1 15 C-1.33 15.66 -1.66 16.32 -2 17 C-3.00894372 16.07213211 -4.00690907 15.13231567 -5 14.1875 C-5.556875 13.66542969 -6.11375 13.14335938 -6.6875 12.60546875 C-8 11 -8 11 -8 8 C-5.6875 5.5 -5.6875 5.5 -3 3 C-2.401875 2.401875 -1.80375 1.80375 -1.1875 1.1875 C-0.795625 0.795625 -0.40375 0.40375 0 0 Z " fill="#11234C" transform="translate(85,80)"/>
<path d="M0 0 C0.99 0.33 1.98 0.66 3 1 C5.22574335 1.22451458 7.45581519 1.40782878 9.6875 1.5625 C10.86699219 1.64628906 12.04648438 1.73007813 13.26171875 1.81640625 C14.61716797 1.90728516 14.61716797 1.90728516 16 2 C16 2.33 16 2.66 16 3 C10.06 3.495 10.06 3.495 4 4 C4.33 4.99 4.66 5.98 5 7 C3.02 7.33 1.04 7.66 -1 8 C-1 4.88742431 -0.82638376 2.89234315 0 0 Z " fill="#1D3A6C" transform="translate(95,152)"/>
<path d="M0 0 C0.66 0.33 1.32 0.66 2 1 C1.67 1.66 1.34 2.32 1 3 C3.97 3.495 3.97 3.495 7 4 C7 4.33 7 4.66 7 5 C5.783125 5.0825 4.56625 5.165 3.3125 5.25 C-1.84403008 5.87973553 -4.41135082 8.41135082 -8 12 C-8 10.35 -8 8.7 -8 7 C-7.360625 6.7525 -6.72125 6.505 -6.0625 6.25 C-3.80104993 5.20311706 -3.80104993 5.20311706 -3.4375 2.9375 C-3.293125 2.298125 -3.14875 1.65875 -3 1 C-2.01 0.67 -1.02 0.34 0 0 Z " fill="#3F5C84" transform="translate(239,113)"/>
<path d="M0 0 C0.33663062 3.70293685 0.47736015 5.39534381 -1.875 8.375 C-4 10 -4 10 -6 10 C-5.50890585 3.49300254 -5.50890585 3.49300254 -3 1.0625 C-1 0 -1 0 0 0 Z " fill="#F6F5F6" transform="translate(255,133)"/>
<path d="M0 0 C0.66 0.33 1.32 0.66 2 1 C2 3.31 2 5.62 2 8 C0.02 8.99 0.02 8.99 -2 10 C-2 8.35 -2 6.7 -2 5 C-2.66 4.67 -3.32 4.34 -4 4 C-2.68 2.68 -1.36 1.36 0 0 Z " fill="#B38F81" transform="translate(252,33)"/>
<path d="M0 0 C4.29 0 8.58 0 13 0 C12.67 0.99 12.34 1.98 12 3 C7.71 3 3.42 3 -1 3 C-0.67 2.01 -0.34 1.02 0 0 Z " fill="#0A275C" transform="translate(124,139)"/>
<path d="M0 0 C2.4375 0.8125 2.4375 0.8125 5 2 C5.33 2.99 5.66 3.98 6 5 C5.01 5.495 5.01 5.495 4 6 C4.33 8.31 4.66 10.62 5 13 C3.68 13.99 2.36 14.98 1 16 C1.01160156 15.18015625 1.02320313 14.3603125 1.03515625 13.515625 C1.04869141 11.89914063 1.04869141 11.89914063 1.0625 10.25 C1.07410156 9.18265625 1.08570313 8.1153125 1.09765625 7.015625 C1.01510087 4.46631499 0.74617558 2.42066409 0 0 Z " fill="#E5ECF2" transform="translate(249,120)"/>
<path d="M0 0 C1.65 0.33 3.3 0.66 5 1 C4.67 2.65 4.34 4.3 4 6 C2.35 5.67 0.7 5.34 -1 5 C-0.67 3.35 -0.34 1.7 0 0 Z " fill="#010820" transform="translate(80,29)"/>
<path d="M0 0 C1.67542976 0.28604898 3.34385343 0.61781233 5 1 C5 2.32 5 3.64 5 5 C3.02 5.33 1.04 5.66 -1 6 C-1.042721 4.33388095 -1.04063832 2.66617115 -1 1 C-0.67 0.67 -0.34 0.34 0 0 Z " fill="#020A1E" transform="translate(69,29)"/>
<path d="M0 0 C2.31 0.66 4.62 1.32 7 2 C5.02 2.99 5.02 2.99 3 4 C2.73067479 8.65052872 2.73067479 8.65052872 4 13 C1.525 12.01 1.525 12.01 -1 11 C-1 9.68 -1 8.36 -1 7 C-0.34 7 0.32 7 1 7 C0.67 4.69 0.34 2.38 0 0 Z " fill="#324C75" transform="translate(153,139)"/>
<path d="M0 0 C0.99 0.66 1.98 1.32 3 2 C2.61402985 4.79828356 2.19863427 5.8205884 0.0625 7.75 C-2 9 -2 9 -4 9 C-2.94124926 5.59687262 -1.99097846 2.98646769 0 0 Z " fill="#F0EAEC" transform="translate(253,43)"/>
<path d="M0 0 C1.65 0 3.3 0 5 0 C5 1.98 5 3.96 5 6 C3.35 6 1.7 6 0 6 C0 4.02 0 2.04 0 0 Z " fill="#010A1A" transform="translate(57,29)"/>
<path d="M0 0 C1.52299523 2.93720508 2.80100302 5.9168649 4 9 C1.6875 8.8125 1.6875 8.8125 -1 8 C-2.8125 5.4375 -2.8125 5.4375 -4 3 C-3.01 3 -2.02 3 -1 3 C-0.67 2.01 -0.34 1.02 0 0 Z " fill="#D9DBDE" transform="translate(236,135)"/>
<path d="M0 0 C2.31 0 4.62 0 7 0 C7 1.32 7 2.64 7 4 C6.01 4 5.02 4 4 4 C4 4.66 4 5.32 4 6 C3.01 5.67 2.02 5.34 1 5 C0.67 3.35 0.34 1.7 0 0 Z " fill="#F8ADA3" transform="translate(242,45)"/>
<path d="M0 0 C0.33 0 0.66 0 1 0 C1 1.65 1 3.3 1 5 C2.32 5 3.64 5 5 5 C5 6.32 5 7.64 5 9 C4.01 9 3.02 9 2 9 C1.67 10.65 1.34 12.3 1 14 C0.67 14 0.34 14 0 14 C0 9.38 0 4.76 0 0 Z " fill="#10244D" transform="translate(52,25)"/>
<path d="M0 0 C4.95 0.99 4.95 0.99 10 2 C9.34 3.32 8.68 4.64 8 6 C6.68 6 5.36 6 4 6 C4 5.34 4 4.68 4 4 C2.68 3.34 1.36 2.68 0 2 C0 1.34 0 0.68 0 0 Z " fill="#023450" transform="translate(76,152)"/>
<path d="M0 0 C2.31 0 4.62 0 7 0 C7 2.31 7 4.62 7 7 C6.01 6.67 5.02 6.34 4 6 C4 5.01 4 4.02 4 3 C3.34 3 2.68 3 2 3 C2 2.34 2 1.68 2 1 C1.34 0.67 0.68 0.34 0 0 Z " fill="#EDB9A0" transform="translate(242,127)"/>
<path d="M0 0 C-0.33 2.31 -0.66 4.62 -1 7 C-1.66 6.01 -2.32 5.02 -3 4 C-4.58272601 5.58272601 -4.34735747 7.38034003 -4.5625 9.5625 C-4.64628906 10.38878906 -4.73007813 11.21507812 -4.81640625 12.06640625 C-4.87699219 12.70449219 -4.93757812 13.34257812 -5 14 C-5.33 14 -5.66 14 -6 14 C-6.08153933 12.41753293 -6.13943557 10.83383727 -6.1875 9.25 C-6.22230469 8.36828125 -6.25710937 7.4865625 -6.29296875 6.578125 C-5.801274 2.25121124 -4.47481769 0 0 0 Z " fill="#CBD7E5" transform="translate(236,122)"/>
<path d="M0 0 C0.99 0.66 1.98 1.32 3 2 C2.67 3.65 2.34 5.3 2 7 C0.35 7.33 -1.3 7.66 -3 8 C-3.66 7.01 -4.32 6.02 -5 5 C-2.03 5.495 -2.03 5.495 1 6 C0.67 4.02 0.34 2.04 0 0 Z " fill="#010923" transform="translate(92,106)"/>
<path d="M0 0 C0.99 0.33 1.98 0.66 3 1 C1.60667426 4.36720387 0.0210714 5.9859524 -3 8 C-3.33 7.01 -3.66 6.02 -4 5 C-3.34 4.01 -2.68 3.02 -2 2 C-1.34 2 -0.68 2 0 2 C0 1.34 0 0.68 0 0 Z " fill="#132554" transform="translate(77,73)"/>
<path d="M0 0 C1.8871875 0.0309375 1.8871875 0.0309375 3.8125 0.0625 C3.8125 0.3925 3.8125 0.7225 3.8125 1.0625 C3.02875 1.206875 2.245 1.35125 1.4375 1.5 C-1.15171018 1.94048925 -1.15171018 1.94048925 -3.1875 3.0625 C-3.1875 4.0525 -3.1875 5.0425 -3.1875 6.0625 C-4.1775 6.0625 -5.1675 6.0625 -6.1875 6.0625 C-6.5175 4.4125 -6.8475 2.7625 -7.1875 1.0625 C-4.43671116 0.14557039 -2.82801087 -0.04636083 0 0 Z " fill="#C69883" transform="translate(245.1875,125.9375)"/>
<path d="M0 0 C0.33 0 0.66 0 1 0 C1.05406122 1.93719378 1.09282025 3.87481921 1.125 5.8125 C1.14820313 6.89144531 1.17140625 7.97039062 1.1953125 9.08203125 C1 12 1 12 -1 15 C-1.99 14.67 -2.98 14.34 -4 14 C-3.525625 13.360625 -3.05125 12.72125 -2.5625 12.0625 C-0.52968613 8.07818481 -0.2789471 4.41505926 0 0 Z " fill="#607A99" transform="translate(257,82)"/>
<path d="M0 0 C0.66 0 1.32 0 2 0 C2.39169887 2.66355234 2.40564529 4.39224373 0.88671875 6.66796875 C-0.36389317 8.1510888 -1.67864514 9.57954352 -3 11 C-3.99 10.67 -4.98 10.34 -6 10 C-5.3503125 9.41992188 -5.3503125 9.41992188 -4.6875 8.828125 C-4.130625 8.30734375 -3.57375 7.7865625 -3 7.25 C-2.443125 6.73953125 -1.88625 6.2290625 -1.3125 5.703125 C0.40694193 3.8303084 0.40694193 3.8303084 0 0 Z " fill="#102248" transform="translate(94,67)"/>
<path d="M0 0 C2.4375 0.375 2.4375 0.375 5 1 C5.33 1.66 5.66 2.32 6 3 C5.1028125 3.1546875 5.1028125 3.1546875 4.1875 3.3125 C1.71756736 4.08876455 0.67748765 5.07088921 -1 7 C-0.67 4.69 -0.34 2.38 0 0 Z " fill="#020A1F" transform="translate(147,65)"/>
<path d="M0 0 C0.33 0 0.66 0 1 0 C1.33 3.3 1.66 6.6 2 10 C1.01 10.495 1.01 10.495 0 11 C-2.08387097 6.58709677 -2.08387097 6.58709677 -1.6875 3.8125 C-1 2 -1 2 0 0 Z " fill="#A48577" transform="translate(237,128)"/>
<path d="M0 0 C0 3.57575896 -1.08840607 5.05295935 -3 8 C-4.32 7.67 -5.64 7.34 -7 7 C-4.69 4.69 -2.38 2.38 0 0 Z " fill="#132552" transform="translate(166,98)"/>
<path d="M0 0 C1.8871875 0.061875 1.8871875 0.061875 3.8125 0.125 C3.8125 0.455 3.8125 0.785 3.8125 1.125 C1.1725 1.785 -1.4675 2.445 -4.1875 3.125 C-4.5175 5.105 -4.8475 7.085 -5.1875 9.125 C-5.5175 9.125 -5.8475 9.125 -6.1875 9.125 C-6.5175 6.815 -6.8475 4.505 -7.1875 2.125 C-4.09861478 0.06574319 -3.47814073 -0.1140374 0 0 Z " fill="#8390A3" transform="translate(245.1875,24.875)"/>
<path d="M0 0 C2 1.3125 2 1.3125 4 3 C4 3.99 4 4.98 4 6 C4.66 6.33 5.32 6.66 6 7 C3.03 6.505 3.03 6.505 0 6 C0 4.02 0 2.04 0 0 Z " fill="#D6AC97" transform="translate(246,82)"/>
<path d="M0 0 C0.66 0.33 1.32 0.66 2 1 C-0.97 5.95 -0.97 5.95 -4 11 C-4.33 9.68 -4.66 8.36 -5 7 C-4.34 6.67 -3.68 6.34 -3 6 C-2.29788106 4.34795544 -1.63028587 2.68076231 -1 1 C-0.67 0.67 -0.34 0.34 0 0 Z " fill="#11234E" transform="translate(129,63)"/>
<path d="M0 0 C1.76462683 3.08809695 2 4.23312136 2 8 C2.66 8.33 3.32 8.66 4 9 C3.67 9.66 3.34 10.32 3 11 C2.34 11 1.68 11 1 11 C-0.20272819 8.59454362 -0.10071472 7.05003047 -0.0625 4.375 C-0.05347656 3.55773438 -0.04445312 2.74046875 -0.03515625 1.8984375 C-0.02355469 1.27195313 -0.01195312 0.64546875 0 0 Z " fill="#DBBBB4" transform="translate(238,34)"/>
<path d="M0 0 C0.99 0.33 1.98 0.66 3 1 C3 2.65 3 4.3 3 6 C2.01 6.33 1.02 6.66 0 7 C0 4.69 0 2.38 0 0 Z " fill="#1B3460" transform="translate(157,143)"/>
<path d="M0 0 C0.99 0 1.98 0 3 0 C2.67 2.64 2.34 5.28 2 8 C1.34 8 0.68 8 0 8 C0 5.36 0 2.72 0 0 Z " fill="#3C2F31" transform="translate(236,80)"/>
<path d="M0 0 C2.64 0.33 5.28 0.66 8 1 C5.77810176 3.22189824 3.91517292 3.92598892 1 5 C0.67 3.35 0.34 1.7 0 0 Z " fill="#3A2623" transform="translate(238,138)"/>
<path d="M0 0 C3.125 0.375 3.125 0.375 6 1 C5.67 2.32 5.34 3.64 5 5 C2.69 4.01 0.38 3.02 -2 2 C-1.34 1.34 -0.68 0.68 0 0 Z " fill="#BFC7CF" transform="translate(244,118)"/>
<path d="M0 0 C0.33 0 0.66 0 1 0 C1.66 2.64 2.32 5.28 3 8 C1.68 8.99 0.36 9.98 -1 11 C-0.67 7.37 -0.34 3.74 0 0 Z " fill="#DCCDC6" transform="translate(251,125)"/>
<path d="M0 0 C0.33 0.66 0.66 1.32 1 2 C2.32 1.34 3.64 0.68 5 0 C3.92598892 2.91517292 3.22189824 4.77810176 1 7 C1 5.68 1 4.36 1 3 C0.34 2.67 -0.32 2.34 -1 2 C-0.67 1.34 -0.34 0.68 0 0 Z " fill="#F7C3B7" transform="translate(249,41)"/>
</svg>
