<?xml version="1.0" encoding="UTF-8"?>
<svg version="1.1" viewBox="0 0 2048 1777" width="227" height="197" xmlns="http://www.w3.org/2000/svg">
<path transform="translate(976,13)" d="m0 0 31 1 26 3 30 6 25 7 26 10 25 11 20 10 22 13 21 14 18 13 17 13 18 14 16 11 28 14 15 7 19 9 28 13 26 13 33 15 81 39 20 9 31 15 20 10-1 3-33 15-20 9-54 26-24 11-29 14-34 16-24 11-26 13-22 10-13-6-6-3-1-3 4-17 2-22v-22l-10-91-7-49-5-20-6-7-14-11-10-9-11-9-10-8-19-14-19-13-19-12-25-14-27-13-23-9-19-6-30-7-21-3-30-2-31 1-26 3-24 5-27 8-24 10-23 11-18 10-19 12-18 13-13 10-11 9-13 12-8 8-8 7-7 7-7 8-11 11-9 11-10 11-13 17-13 18-10 14-11 18-10 19-6 16-4 16-2 19-1 54v331l-1 339h-24l-3-3v-723l3-19 5-21 7-19 8-16 8-15 19-28 14-18 9-12 9-11 13-15 14-15 7-8 13-13 8-7 12-11 11-9 15-12 20-14 17-11 17-10 27-14 23-10 30-10 27-6 26-4 10-1zm324 172 3 15 6 29 5 34 3 28 4 69 1 12 10-3 26-13 23-11 32-15 52-25 26-11 20-9-1-2-24-11-32-16-56-26-34-17-50-22z" fill="#FEFEFE"/>
<path transform="translate(1382,635)" d="m0 0h23l1 1 1 511v53l-4-2-12-16-13-15-13-17-13-16-11-14-11-13-11-14-13-16-9-11-14-18-28-34-10-13-13-16-9-11-12-15-11-14-11-13-11-14-12-15-18-22-12-15-11-14-11-13-13-17-9-11-26-32-11-14-12-14-22-28-5-6v-2h-2l1 3v69l-1 404h-14l-12-1-1-1v-548l4 2 7 7 12 16 11 13 9 11 11 13 11 14 13 16 10 13 14 17 26 32 11 14 26 32 11 14 14 17 8 10 13 16 24 30 13 16 16 20 9 11 13 16 11 14 26 32 16 20 18 22 14 17 7 9 10 13 5 6-1-263v-53l1-169z" fill="#FDFDFD"/>
<path transform="translate(750,516)" d="m0 0h17l14 2 14 5 16 9 13 11 9 11 8 14 6 15 3 15v20l-4 18-7 16-9 14-9 10-8 7-15 9-21 7-12 2h-14l-17-3-16-6-12-7-14-12-9-12-9-16-5-16-2-13v-14l2-15 5-16 7-13 10-13 9-9 15-10 17-7z" fill="#8BBBFD"/>
<path transform="translate(432,651)" d="m0 0h13l6 3 1 1v13l-6 68-6 58-5 51-5 50-4 39-6 61-7 67-4 40-2 17v16l5 17 12 36 16 47 14 43 13 38 14 43 13 38 14 43 13 38 14 43 10 30 8 23v4l-21 7-5-2-4-9-14-43-13-38-14-43-16-47-81-243-5-17-1-6v-14l5-53 9-90 12-119 6-62 8-80 5-46 2-16 4-5z" fill="#FDFDFD"/>
<path transform="translate(603,1298)" d="m0 0 7 1 10 4 21 12 24 14 22 13 45 27 58 34 15 9 54 32 29 17 32 19 40 24 29 17 51 30 35 21 51 30 27 16 20 12 71 42 44 26 20 12 28 17 9 6-1 6-9 14-2 4-5-2-17-10-26-16-29-17-15-9-26-15-50-30-27-16-29-17-22-13-27-16-20-12-27-16-15-9-26-15-25-15-22-13-25-15-29-17-51-30-28-17-22-13-27-16-29-17-20-12-86-51-10-8-3-4v-6l5-9z" fill="#FDFDFD"/>
<path transform="translate(1928,1079)" d="m0 0 4 2 7 10 3 6-1 4-8 6-20 12-29 17-27 16-26 15-22 13-26 15-15 9-22 13-26 15-80 47-23 13-20 12-29 17-24 14-26 15-25 15-26 15-25 15-28 16-15 9-24 14-26 15-22 13-26 15-28 17-25 14-24 14-15 8-6 2h-5l-5-6-3-7 1-6 6-7 26-15 20-12 27-16 26-15 25-15 26-15 22-13 26-15 22-13 51-30 45-26 20-12 26-15 25-15 23-13 20-12 111-65 26-15 28-17 18-10 20-12 26-15 48-28 21-12z" fill="#FDFDFD"/>
<path transform="translate(971,1203)" d="m0 0h18l14 3 11 4 11 6 10 8 7 7 8 13 6 14 3 13v22l-4 17-8 16-7 9-11 11-14 8-15 5-12 2h-18l-15-3-16-8-9-7-5-4-9-12-6-11-5-12-3-14v-14l3-16 6-15 6-10 8-10 13-10 16-8z" fill="#8BBBFD"/>
<path transform="translate(1899,1273)" d="m0 0 4 1 4 9 6 9-1 5-9 6-26 14-14 8-22 12-27 15-28 15-23 13-23 12-18 10-22 12-29 16-28 15-27 15-24 13-23 13-23 12-21 12-28 15-16 9-28 15-27 15-28 15-16 9-28 15-17 8h-3l-8-12v-9l5-5 16-9 25-14 23-13 32-17 27-15 23-13 30-16 22-12 25-14 22-12 46-25 26-14 14-8 30-16 18-10 26-14 23-13 28-15 18-10 22-12 29-16 32-17z" fill="#FEFEFE"/>
<path transform="translate(1e3 203)" d="m0 0h28l16 3 13 5 15 8 12 9 11 10 10 14 8 15 5 14 4 20v19l-3 17-5 16-8 15-12 16-8 8-12 9-12 7-13 5-21 5-9 1h-14l-19-3-15-5-19-10-13-11-7-7-11-15-8-16-5-14-3-16v-22l3-16 5-15 7-14 10-14 11-12 12-9 14-8 17-6zm3 27-18 4-15 8-10 8-11 11-8 13-6 15-2 10v24l4 17 9 17 12 13 8 7 13 8 16 5 16 2 17-1 15-4 15-8 13-10 9-10 6-10 5-14 3-15v-22l-4-15-8-16-8-11-8-8-10-7-12-6-14-4-6-1z" fill="#FEFEFE"/>
<path transform="translate(278,813)" d="m0 0h11l6 3 2 3v84l-1 265-1 151-1 97-4 4-10 1-9-3-2-3-1-5v-223l1-273 1-75 1-21 4-4z" fill="#FDFDFD"/>
<path transform="translate(488,422)" d="m0 0 6 1 9 8 5 5 1 3-6 8-25 25-7 8-19 19-5 6-6 5-7 8-54 54-7 8-13 13-7 8-7 7-7 8-18 18-7 8-54 54-5 6h-2v2h-2l-2 4-34 34-7 8-9 9-7 8-36 36-5 3-5-1-11-10-1-6 5-8 11-12 23-23 6-7h2v-2h2l2-4 44-44 7-8 21-21 7-8 16-17 18-18 7-8 74-74 7-8 20-20 7-8 10-10 7-8 8-8 7-8 19-19 1-2h2l2-4 15-15z" fill="#FDFDFD"/>
<path transform="translate(632,1487)" d="m0 0 8 2 10 5 27 18 25 16 11 8 11 7 43 29 44 29 43 29 44 29 132 88 14 10 4 5-3 6-6 9h-17l-15-11-36-24-43-29-11-7-270-180-14-10-10-9-1-1 1-9 6-8z" fill="#FDFDFD"/>
<path transform="translate(1355,436)" d="m0 0h10l16 3 14 7 9 7 8 8 8 14 4 11 1 5v24l-4 13-6 11-8 11-11 8-12 6-12 3-9 1h-10l-12-2-12-5-12-9-7-7-9-14-5-13-2-12 1-16 6-16 7-12 9-10 10-7 12-6z" fill="#8BBBFD"/>
<path transform="translate(1602,624)" d="m0 0h15l5 3 1 1v494l-2 1h-20l-4-3-1-37v-401l1-53z" fill="#FCFCFD"/>
<path transform="translate(1755,581)" d="m0 0 25 1 2 1 1 3 1 235 1 115v113l-3 3-5 1h-14l-3-4-1-7-1-32-2-181-1-134z" fill="#FEFEFE"/>
<path transform="translate(771,759)" d="m0 0h12l7 3 1 2v466l-1 1h-23l-3-2v-462l3-6z" fill="#FEFEFE"/>
<path transform="translate(1905,651)" d="m0 0h16l6 2 1 2v301l-1 4h-25l-1-1-1-23v-170l1-110 2-4z" fill="#FDFDFD"/>
<path transform="translate(436,291)" d="m0 0 3 1 5 7v2l4 2 6 6-2 5-6 6h-2l-2 4-7 7-7 8-22 22-7 8-15 16-12 13-8 8-7 8-16 16-7 8-9 9-7 8-9 10-7 8-12 13-21 21-9 6-7 1-6-4-4-7 1-7 8-11 14-15 11-12 15-16 14-14 7-8 15-16 11-12 7-8 8-8 1-2h2l2-4 16-16 7-8 13-13 7-8 12-13 16-17z" fill="#FEFEFE"/>
<path transform="translate(1704,351)" d="m0 0 9 2 13 10 14 11 16 13 13 10 17 14 11 9 16 13 14 11 11 9 17 14 14 11 13 11 14 11 13 10 6 6-1 4-9 11-4 6-9-5-13-10-17-14-16-13-10-8-16-13-10-8-32-26-14-11-17-14-14-11-16-13-12-10-10-8-3-4 1-7 8-10z" fill="#FEFEFE"/>
<path transform="translate(1512,406)" d="m0 0h8l10 6 8 8 8 7 17 16 9 9 8 7 16 15 8 7 17 16 10 10 8 7 16 15 8 7 20 18 16 16-1 4-7 7-6 10-4-2-8-6-20-18-10-10-8-7-9-9-8-7-7-7-8-7-26-24-17-16-13-12-20-18-22-22-5-8 2-4z" fill="#FEFEFE"/>
</svg>
